/* XPM */
static char *_da9707bfa7f4adaa1e041d4d96e398efREzcR6NL4W8OCfT[] = {
/* columns rows colors chars-per-pixel */
"32 32 3 1 ",
"  c None",
". c black",
"X c red",
/* pixels */
"                                ",
"                                ",
"                                ",
"                                ",
"                                ",
"                                ",
"        ......   ......         ",
"        ......   ......         ",
"        ......   ......         ",
"     ...XXXXXX...XXXXXX...      ",
"     ...XXXXXX...XXXXXX...      ",
"     ...XXXXXX...XXXXXX...      ",
"     ...XXXXXXXXXXXXXXX...      ",
"     ...XXXXXXXXXXXXXXX...      ",
"     ...XXXXXXXXXXXXXXX...      ",
"        ...XXXXXXXXX...         ",
"        ...XXXXXXXXX...         ",
"        ...XXXXXXXXX...         ",
"           ...XXX...            ",
"           ...XXX...            ",
"           ...XXX...            ",
"              ...               ",
"              ...               ",
"              ...               ",
"                                ",
"                                ",
"                                ",
"                                ",
"                                ",
"                                ",
"                                ",
"                                "
};
