/* XPM */
static char *_62876c62eb04a1dd1d01b098e35bd3bLwC3GJs1OhiImziU[] = {
/* columns rows colors chars-per-pixel */
"32 32 54 1 ",
"  c None",
". c #162B3A",
"X c #36393F",
"o c #373E47",
"O c #384858",
"+ c #2D5675",
"@ c #2D5776",
"# c #3A5770",
"$ c #415E75",
"% c #326184",
"& c #3B6180",
"* c #3B6688",
"= c #2A6B9C",
"- c #3C6B90",
"; c #3C6B91",
": c #2D70A1",
"> c #3D75A0",
", c #3D75A1",
"< c #3D77A1",
"1 c #3378AC",
"2 c #3E7FB0",
"3 c #3E7FB1",
"4 c #436580",
"5 c #487395",
"6 c #477DA5",
"7 c #4A7BA0",
"8 c #3981B6",
"9 c #3F84B9",
"0 c #3C85BB",
"q c #4781AD",
"w c #4187BC",
"e c #4D8DBD",
"r c #3F89C1",
"t c #408AC1",
"y c #418BC3",
"u c #4692CB",
"i c #4693CB",
"p c #4E97CD",
"a c #4E98CE",
"s c #4996D0",
"d c #4B99D3",
"f c #4F9AD2",
"g c #4C9BD6",
"h c #4E9DD8",
"j c #4F9FDB",
"k c #539ED5",
"l c #51A2DE",
"z c #54A2DC",
"x c #53A4E0",
"c c #57A6E0",
"v c #57A8E3",
"b c #56A8E5",
"n c #58ABE8",
"m c #59ADEB",
/* pixels */
"                                ",
"                                ",
"                                ",
"          #2<                   ",
"          0trrr                 ",
"          ttrrrr2               ",
"        5kmmmmxdtw     -t&X     ",
"      $cmmmmmmmmmlw   0tt<X     ",
"     4m<@zmmmxmmmmnq 9rrrO      ",
"     cm  @mmg=mmmmmmfrrr;X      ",
"   X7mm%.pmmm:immmmmmjrrO       ",
"   Xemmmmmmmm01mmmmmmms2X       ",
"    6mmmmmmmmt1mmmmmmml,X       ",
"      ammmmmm88mmmmmmmi<X       ",
"        mmmmm immmmmmhrro       ",
"         mmmg bmmmmmgrrr#X      ",
"      mmmmmmb mmmm   rrr2o      ",
"        mmmmmmmmv     rrr;X     ",
"               s       <r*o     ",
"                                ",
"                                ",
"                                ",
"                                ",
"                                ",
"                                ",
"                                ",
"                                ",
"                                ",
"                                ",
"                                ",
"                                ",
"                                "
};
