/* XPM */
static char *_eb5fa9a287a4fccc5fe15252f45cfa8UT1wlkcsZ4FdslAw[] = {
/* columns rows colors chars-per-pixel */
"30 29 54 1 ",
"  c None",
". c #292F33",
"X c #36393F",
"o c #3A3948",
"O c #3C3C48",
"+ c #3E3A51",
"@ c #4D3A74",
"# c #42454C",
"$ c #464950",
"% c #474259",
"& c #52555C",
"* c #494162",
"= c #4D4266",
"- c #4E4564",
"; c #50456B",
": c #564874",
"> c #584B72",
", c #5D497F",
"< c #5E4E7C",
"1 c #5F636A",
"2 c #5D4881",
"3 c #5B408B",
"4 c #654B8E",
"5 c #635087",
"6 c #645184",
"7 c #6A5390",
"8 c #6B5590",
"9 c #6F5796",
"0 c #745A9E",
"q c #755A9E",
"w c #7050A2",
"e c #7452A6",
"r c #7656A4",
"t c #775BA4",
"y c #7B5DA7",
"u c #7451A8",
"i c #7653AA",
"p c #7654A9",
"a c #7854AC",
"s c #7858A8",
"d c #7B57B0",
"f c #835DB8",
"g c #8060AF",
"h c #8663B7",
"j c #8663B8",
"k c #8964BD",
"l c #8A65BF",
"z c #8B66C0",
"x c #8C66C1",
"c c #8C65C2",
"v c #8C66C2",
"b c #8D67C3",
"n c #9169C9",
"m c #509FDB",
/* pixels */
"                             m",
"                              ",
"           znnz0>             ",
"         nnnnnnnnz            ",
"       nnnnnnnnnnnn           ",
"       nnnnnnnnnnnnv          ",
"      nnnnnnnnnnnnnn          ",
"      nnnnnnnnnnnnnn          ",
"     nnnnnnnnnnnnnnnv         ",
"     vnnnnnnnnnnnnnnj         ",
"     ynnnnnnnnnnnnnn          ",
"     8nnnnnnnnnnnnnn          ",
"     -nnnnnnnnnnnnnn          ",
"      vnnltlnnltlnnv          ",
"      snn:.;nn*.:nnr          ",
"    +@pnn7.5nn5.8nne          ",
"    o3annnnnnnnnnnna        &$",
"   ==wdnnnnnnn  nnnaw        1",
"  wuuefnnnnnnnnnnnnfu        #",
"   242vnnnnnnnnnnnnl          ",
"     9nnnnv<OO<vnnnn          ",
"   hjnnnng%X  X%gnnnn         ",
"  vnnnnv6O      O6v nnn       ",
"   0y0           X            ",
"                              ",
"                              ",
"                              ",
"                              ",
"                              "
};
