/* XPM */
static char *_45e23735c26448292abe08932c6906bPzqvUnWbzMEixMS0[] = {
/* columns rows colors chars-per-pixel */
"50 50 3 1 ",
"  c black",
". c #945500",
"X c #F4E38C",
/* pixels */
"                                                  ",
" XXXXXXXXXXXXXXXXXXXXXXXXXXXXXXXXXXXXXXXXXXXXXXXX ",
" XXXXXXXXXXXXXXXXXXXXXXXXXXXXXXXXXXXXXXXXXXXXXXXX ",
" XXXXXXXXXXXXXXXXXXXXXXXXXXXXXXXXXXXXXXXXXXXXXXXX ",
" XXXXXXXXXXXXXXXXXXXXXXXXXXXXXXXXXXXXXXXXXXXXXXXX ",
" XXXXXXXXXXXXXXXXXXXXXXXXXXXXXXXXXXXXXXXXXXXXXXXX ",
" XXXXXXXXXXXXXXXXXXXXXXXXXXXXXXXXXXXXXXXXXXXXXXXX ",
" XXXXXXXXXXXXXXXXXXXXXXXXXXXXXXXXXXXXXXXXXXXXXXXX ",
" XXXXXXXXXXXXXXXXXXXXXXXXXXXXXXXXXXXXXXXXXXXXXXXX ",
" XXXXXXXXXXXXXXXXXXXXXXXXXXXXXXXXXXXXXXXXXXXXXXXX ",
" XXXXXXXXXXXXXXXXXXXXXXXXXXXXXXXXXXXXXXXXXXXXXXXX ",
" XXXXXXXXXXXXXXXXXXXXXXXXXXXXXXXXXXXXXXXXXXXXXXXX ",
" XXXXXXXXXXXXXXXXXXXXXXXXXXXXXXXXXXXXXXXXXXXXXXXX ",
" XXXXXXXXXXXXXXXXXXXXXXXXXXXXXXXXXXXXXXXXXXXXXXXX ",
" XXXXXXXXXXXXXXXXXXXXXXXXXXXXXXXXXXXXXXXXXXXXXXXX ",
" XXXXXXXXXXXXXXXXXXXXXXXXXXXXXXXXXXXXXXXXXXXXXXXX ",
" XXXXXXXXXXXXXXXXXXXXXXXXXXXXXXXXXXXXXXXXXXXXXXXX ",
" XXXXXXXXXXXXXXXXXXXXXXXXXXXXXXXXXXXXXXXXXXXXXXXX ",
" XXXXXXXXXXXXXXXXXXXXXXXXXXXXXXXXXXXXXXXXXXXXXXXX ",
" XXXXXXXXXXXX...XXXXXXXXXXXXXXXXXX...XXXXXXXXXXXX ",
" XXXXXXXXXXXX.....XXXXXXXXXXXXXX.....XXXXXXXXXXXX ",
" XXXXXXXXXXXX......XXXXXXXXXXXX......XXXXXXXXXXXX ",
" XXXXXXXXXXXXX.......XXXXXXXX.......XXXXXXXXXXXXX ",
" XXXXXXXXXXXXXXX......XXXXXX......XXXXXXXXXXXXXXX ",
" XXXXXXXXXXXXXXXX.......XX.......XXXXXXXXXXXXXXXX ",
" XXXXXXXXXXXXXXXXXX............XXXXXXXXXXXXXXXXXX ",
" XXXXXXXXXXXXXXXXXXX..........XXXXXXXXXXXXXXXXXXX ",
" XXXXXXXXXXXXXXXXXXXXX......XXXXXXXXXXXXXXXXXXXXX ",
" XXXXXXXXXXXXXXXXXXX..........XXXXXXXXXXXXXXXXXXX ",
" XXXXXXXXXXXXXXXXXX............XXXXXXXXXXXXXXXXXX ",
" XXXXXXXXXXXXXXXX.......XX.......XXXXXXXXXXXXXXXX ",
" XXXXXXXXXXXXXXX......XXXXXX......XXXXXXXXXXXXXXX ",
" XXXXXXXXXXXXX.......XXXXXXXX.......XXXXXXXXXXXXX ",
" XXXXXXXXXXXX......XXXXXXXXXXXX......XXXXXXXXXXXX ",
" XXXXXXXXXXXX.....XXXXXXXXXXXXXX.....XXXXXXXXXXXX ",
" XXXXXXXXXXXX...XXXXXXXXXXXXXXXXXX...XXXXXXXXXXXX ",
" XXXXXXXXXXXXXXXXXXXXXXXXXXXXXXXXXXXXXXXXXXXXXXXX ",
" XXXXXXXXXXXXXXXXXXXXXXXXXXXXXXXXXXXXXXXXXXXXXXXX ",
" XXXXXXXXXXXXXXXXXXXXXXXXXXXXXXXXXXXXXXXXXXXXXXXX ",
" XXXXXXXXXXXXXXXXXXXXXXXXXXXXXXXXXXXXXXXXXXXXXXXX ",
" XXXXXXXXXXXXXXXXXXXXXXXXXXXXXXXXXXXXXXXXXXXXXXXX ",
" XXXXXXXXXXXXXXXXXXXXXXXXXXXXXXXXXXXXXXXXXXXXXXXX ",
" XXXXXXXXXXXXXXXXXXXXXXXXXXXXXXXXXXXXXXXXXXXXXXXX ",
" XXXXXXXXXXXXXXXXXXXXXXXXXXXXXXXXXXXXXXXXXXXXXXXX ",
" XXXXXXXXXXXXXXXXXXXXXXXXXXXXXXXXXXXXXXXXXXXXXXXX ",
" XXXXXXXXXXXXXXXXXXXXXXXXXXXXXXXXXXXXXXXXXXXXXXXX ",
" XXXXXXXXXXXXXXXXXXXXXXXXXXXXXXXXXXXXXXXXXXXXXXXX ",
" XXXXXXXXXXXXXXXXXXXXXXXXXXXXXXXXXXXXXXXXXXXXXXXX ",
" XXXXXXXXXXXXXXXXXXXXXXXXXXXXXXXXXXXXXXXXXXXXXXXX ",
"                                                  "
};
