/* XPM */
static char *be9930a0f30b4292f8580952f9d03464eriBLtSlOrAlFRJQ[] = {
/* columns rows colors chars-per-pixel */
"50 50 7 1 ",
"  c black",
". c #694500",
"X c #784F00",
"o c #875900",
"O c #966300",
"+ c #F6D8AF",
"@ c #F8DFBD",
/* pixels */
"                                                  ",
" @@@@@@@@@@@@@@@@@@@@@@@@@@@@@@@@@@@@@@@@@@@@@@@@ ",
" @@@@@@@@@@@@@@@@@@@@@@@@@@@@@@@@@@@@@@@@@@@@@@@@ ",
" @@@@@@@@@@@@@@@@@@@@@@@@@@@@@@@@@@@@@@@@@@@@@@@@ ",
" @@@@@@@@  @@@@@@@@@@@@@@@@@@@@@@@@@@@@@  @@@@@@@ ",
" @@@@@@@ ..OO@@@@@@@@@@@@@@@@@@@@@@@@@OO.. @@@@@@ ",
" @@@@@@@@..XXOO@@@@@@@@@@@@@@@@@@@@@OOXX..@@@@@@@ ",
" @@@@@@@@..XXXXOO@@@@@@@@@@@@@@@@@OOXXXX..@@@@@@@ ",
" @@@@@@@@..XXXXXXOOO@@@@@@@@@@@OOOXXXXXX..@@@@@@@ ",
" @@@@@@@@..XXXXXXXXXOO@@@@@@@OOXXXXXXXXX..@@@@@@@ ",
" @@@@@@@@..XXXXXXXXXXXOO@+@OOXXXXXXXXXXX..@@@@@@@ ",
" @@@@@@@@..XXXXXXXXXXXXXOOOXXXXXXXXXXXXX..@@@@@@@ ",
" @@@@@@@@..XXXXXXXXXXXXXXOXXXXXXXXXXXXXX..@@@@@@@ ",
" @@@@@@@@..XXXXXXXXXXXXXOOOXXXXXXXXXXXXX..@@@@@@@ ",
" @@@@@@@@..XXXXXXXXXXXOOoOoOOXXXXXXXXXXX..@@@@@@@ ",
" @@@@@@@@..XXXXXXXXXXOoooOoooOXXXXXXXXXX..@@@@@@@ ",
" @@@@@@@@..XXXXXXXXXOooooOooooOXXXXXXXXX..@@@@@@@ ",
" @@@@@@@@..XXXXXXXXOoooooOoooooOXXXXXXXX..@@@@@@@ ",
" @@@@@@@@..XXXXXXXOooooooOooooooOXXXXXXX..@@@@@@@ ",
" @@@@@@@@..XXXXXOOoooooooOoooooooOOXXXXX..@@@@@@@ ",
" @@@@@@@@..XXXXOoooooooooOoooooooooOXXXX..@@@@@@@ ",
" @@@@@@@@..XXXOooooooooooOooooooooooOXXX..@@@@@@@ ",
" @@@@@@@@..XXOoooooooooooOoooooooooooOXX..@@@@@@@ ",
" @@@@@@@@@@OOooooooooooooOooooooooooooOO@@@@@@@@@ ",
" @@@@@   @OooooooooooooooOooooooooooooooO@   @@@@ ",
" @@@@ ...OoooooooooooooooOoooooooooooooooO... @@@ ",
" @@@@ ... oooooooooooooooOooooooooooooooo ... @@@ ",
" @@@@@...ooooooooooooooooOoooooooooooooooo...@@@@ ",
" @@@@@...ooooooooooooooooOoooooooooooooooo...@@@@ ",
" @@@@@...ooooooooooooooooOoooooooooooooooo...@@@@ ",
" @@@@@...ooooooooooooooooOoooooooooooooooo...@@@@ ",
" @@@@@...ooooooooooooooooOoooooooooooooooo...@@@@ ",
" @@@@@...oooooooooooooooO@Oooooooooooooooo...@@@@ ",
" @@@@@...ooooooooooooooO@@@Ooooooooooooooo...@@@@ ",
" @@@@@...oooooooooooooO@@@@@Oooooooooooooo...@@@@ ",
" @@@@@...ooooooooooooO@@@@@@@Ooooooooooooo...@@@@ ",
" @@@@@...oooooooooooO@@@@@@@@@Oooooooooooo...@@@@ ",
" @@@@@...ooooooooooO@@@@@@@@@@@Ooooooooooo...@@@@ ",
" @@@@@...oooooooooO@@@@@@@@@@@@@Oooooooooo...@@@@ ",
" @@@@@...oooooooOO@@@@@@@@@@@@@@@OOooooooo...@@@@ ",
" @@@@@...ooooooO@@@@@@@@@@@@@@@@@@@Ooooooo...@@@@ ",
" @@@@@...oooooO@@@@@@@@@@@@@@@@@@@@@Oooooo...@@@@ ",
" @@@@@...ooooO@@@@@@@@@@@@@@@@@@@@@@@Ooooo...@@@@ ",
" @@@@@...oooO@@@@@@@@@@@@@@@@@@@@@@@@@Oooo...@@@@ ",
" @@@@@...ooO@@@@@@@@@@@@@@@@@@@@@@@@@@@Ooo...@@@@ ",
" @@@@@...oO@@@@@@@@@@@@@@@@@@@@@@@@@@@@@Oo...@@@@ ",
" @@@@@...O@@@@@@@@@@@@@@@@@@@@@@@@@@@@@@@O...@@@@ ",
" @@@@@@@@@@@@@@@@@@@@@@@@@@@@@@@@@@@@@@@@@@@@@@@@ ",
" @@@@@@@@@@@@@@@@@@@@@@@@@@@@@@@@@@@@@@@@@@@@@@@@ ",
"                                                  "
};
