/* XPM */
static char *_4603c41fd444c9a8d6c61bc8107a162PRe1kiAgTwB7PVoX[] = {
/* columns rows colors chars-per-pixel */
"50 50 49 1 ",
"  c black",
". c #080806",
"X c #0B0B07",
"o c #0F0E0A",
"O c #0F0E0B",
"+ c #1E1D16",
"@ c #2C291B",
"# c #2C2A1D",
"$ c #2D2B21",
"% c #5A5642",
"& c gray50",
"* c #FF7F27",
"= c #22B14C",
"- c #2FB452",
"; c #3CB859",
": c #49BB5F",
"> c #56BE65",
", c #6FC572",
"< c #B2B2B2",
"1 c #B6B6B6",
"2 c gray75",
"3 c #E7D687",
"4 c #E7D689",
"5 c #E7D789",
"6 c #E7D78A",
"7 c #E7D78B",
"8 c #E8D78A",
"9 c #E8D88C",
"0 c #E9DA91",
"q c #E8D992",
"w c #EADA94",
"e c #EADB96",
"r c #EADC98",
"t c #EBDD9C",
"y c #EBDD9D",
"u c #ECDE9F",
"i c #E1D7A6",
"p c #ECDFA0",
"a c #ECDEA1",
"s c #ECDFA1",
"d c #EDE0A4",
"f c #EDE1A6",
"g c #EDE1A9",
"h c #EEE2AA",
"j c #EEE2AB",
"k c #EFE4B0",
"l c #EFE5B0",
"z c #F1E8BA",
"x c #C3C3C3",
/* pixels */
"                                                  ",
" kkkkkkkkklkklkklkklllllllkklllllllkklkklkkllllll ",
" kkkkkkkkkkkkkkkkkkkjguugllkkkkkllllkgkkkkkklllll ",
" kkkkkkkkkkkkkkkkkkkgtttaafkkkkkllljauagkkkkllljk ",
" lllkkkklllkkkkkkkgayydttttuauugjjdrrprdgkkkkkaqa ",
" llgk$ #agkkkkkkjuagkkjgtttuaaalgdtuppduskkkkk838 ",
" juug *o#ykkgg$     $kktssaaaaalr5qpppuuakkkf8838 ",
" ayyy **o#4gy$O*****o$kpssaaaaakju5pppudkkkf83338 ",
" fate ***o#4#o***** *O.asaaaaaasgufuuaggkkk43348e ",
" lut4 ****oXO********* saaaaaaazgauuuuggkkk434ekk ",
" lft4 *****o********** jaaaaaaakggasgjjgkkky3ekkl ",
" lgfq ****# #********$Oaaaaaaaakggggfjfgkkkkkkkkk ",
" lkkk **$ ofo#******$Oaaaaaaaaakggggggggkkkkkkkkk ",
" lkkk $ okkkko$****$Okakaaaaaaakgggkggggkkkkkkkkl ",
" lkkkOOkkkkkkgO    Oaaakkssaaaakgkkgkgggkzzkkkkkk ",
" l9877kkkkyyyyllkkkzkkkkkzkkkakkkkkkkkkgkkkkkkkkk ",
" k7755yyyaaaayykjykkgaakkkkkkkku# $ajlkkkkkkk%kkk ",
" k77577u4kaaaaagjkk$     $gkkky#o* 7llkkkkkk$Okkk ",
" k7795554kaaaaaaak$O*****o#yj3#o** 3lkkkkkk$Okkkk ",
" k7779ii4kaaaaaa7.O* *****o#5@o*** 3llkkkkl kkkkk ",
" kk47i777kaaaaaaj *********ooo**** 3kkkkkkk lkkkk ",
" kk737737kaaaaaaj **********o***** 3kkkkkkk+kkkkk ",
" lk77i777aaaaaaajo$********# #**** ykkkkkkkkkkkkk ",
" lj773777aaaaaaagkO$******#ofo $** kkkkkkkkkkkkkk ",
" lk74i47aaaaaaaggkkO$****$okkkko $ kkkkkkkkkkkkkk ",
" lk47k7ikkaaaagggkkOo    okkkkkkkOOkkkkkkkkkkkkkk ",
" kk97kkikkkakkkkkkkkkkkkkkkkk&&&&&&&kkkkkkkkkkkkk ",
" lkkkkkkkkkkkk:=:kkkkkkkkkk&&&&&&&&&&&kkkkkkkkkkk ",
" kkkkkkkkkkkk:-==kkkkkkkkk&&&&&&&&&&&&&kkkkkkkkkk ",
" kkkkk>=:kkkk==:-kkkkkkkk&&&&&&<x1&&&&&&kkkkkkkkk ",
" kkkkkk=-=:k:-==kkkkkkkkk&&&&&<xx2&&&&&&kkkkkkkkk ",
" kkkkkk===-:====kkkkkkkkk&&&&&&&<x<&&&&&kkkkkkkkk ",
" kkkkkk-:=====:-kkkkkkkkkk,&&&&&&&&&&&&kkkgagjkkk ",
" kkkkkkk===--==kkkkkkkkkkki&&&&&&&&&&&kkkjyyyydgk ",
" kkkkkkk-:===:-kkkkkkkkkkkkkk&&&&yyyaaakkayyyyyyk ",
" kkkkkkkk;,$ #ukkkkkkkkyajkkzayatyaaaaaydydgggydk ",
" kllllkkkk- *o#ykkkg$   ..$kkaajtaaaaaa4wpggggghk ",
" kllkkkkkkk **o#3ky#O*****O$kya8aaaaaaa7dggggggkk ",
" kkgkkkkkkk ***o#4#o***** *O.aaaaaaaazasyggggggkk ",
" kgfagkkkkk ****oXo********* aaaaaaaaajagggggggkk ",
" luttttugkl *****o********** aaaaaaadkgggggggggkk ",
" gfattttygl ****# #********$oaaaaaaaajgggggggggkk ",
" llgttttyyg **$ OfO#******$okaaaaaaaakgdggggggkkk ",
" llgttyayfl $ OklalO$****$okaaaaaaaaakkkkkggggkkk ",
" llkyyyfkkkOOkkkkyygO    Oaaaaaagaaaakkkkkkgggkkk ",
" lkkfyfjkkkkkkkkkyyykkkkkkkaaak84akkkkk kkkkkgkkk ",
" kkkkkkkkkkkkkkkkkkkkkkkkkkkkkka3ykkkk$okkkkkkkkk ",
" kkkkkkkkkkkkkkkkkkkkkkkkkkkkkkkgkkkkk+kkkkkkkkkk ",
" lllkllkllkllkllkkllkllkllkllkllkkkkkkkkkkkkkkkkk ",
"                                                  "
};
