/* XPM */
static char *f978caa112224292b17c608d837fb771Nnrw3qxhEi3Tbsuz[] = {
/* columns rows colors chars-per-pixel */
"50 50 47 1 ",
"  c black",
". c #080806",
"X c #0B0B07",
"o c #0F0E0A",
"O c #0F0E0B",
"+ c #1E1D16",
"@ c #2C291B",
"# c #2C2A1E",
"$ c #2D2B21",
"% c #5A5642",
"& c gray50",
"* c #FF7F27",
"= c #22B14C",
"- c #2FB452",
"; c #3CB859",
": c #49BB5F",
"> c #56BE65",
", c #6FC572",
"< c #B2B2B2",
"1 c #B6B6B6",
"2 c gray75",
"3 c #E7D687",
"4 c #E7D689",
"5 c #E7D789",
"6 c #E7D78A",
"7 c #E7D78B",
"8 c #E8D78B",
"9 c #E8D88C",
"0 c #E8D992",
"q c #EADB96",
"w c #EADC98",
"e c #EBDD9C",
"r c #EBDD9D",
"t c #ECDE9F",
"y c #E1D7A6",
"u c #ECDFA0",
"i c #ECDEA1",
"p c #ECDFA1",
"a c #EDE0A4",
"s c #EDE1A6",
"d c #EDE1A9",
"f c #EEE2AA",
"g c #EEE2AB",
"h c #EFE4B0",
"j c #EFE5B0",
"k c #F1E8BA",
"l c #C3C3C3",
/* pixels */
"                                                  ",
" hhhhhhhhhhhhhhhhhhhjhjjhjhhhhhjhhjhhjhhjhhjhhjjj ",
" hhhhhhhhhhhhhhhhhhhggttgghhhhhhhhhghghghhhhjhjjj ",
" hhhhhhhhhhhhhhhhhhhdrrruudhhhhhhhjsaradhhjhjjjjh ",
" jjjhhhhhhhhhhhhhhdtrrrreerearrggdaeeueughhhhhi0i ",
" jjdhhhhhhhhhhhhdtrhjdhdeeer@ $hdetaeuuuahjjhh638 ",
" gttdhhhhhhhdhh$     $grgsr#O* he50uuuuurhhga5933 ",
" irrrhhhhhhhhh$O*****O$rd3#O** jsa7uuurahjha59533 ",
" sieq88ighh%h.O* *****O#3@O*** gdiituuddhhg83338t ",
" jte7333jhhO$ *********O.O**** hsstauuddhjj733ehd ",
" jse337whhhh  **********O***** jddiisdddhhht3qhhj ",
" jds07qhhhhh+O$********# #**** jddddddddhhhhhdhhj ",
" jhhhhhhhhhddhO$******$OsO $** hddddddddhhhhhhhhj ",
" jhhhhhhhhhhhhhO$****$OhgghO $ hdddhddddhhhhhhhhj ",
" jhhhhhhhhhghhhhO    OhhddgghOOhdhhdhdddhkkhhhhhj ",
" j8877hhhhtrirhhhhhhhhhhhghhhhhhhhhhhhhdhhhhhhhhh ",
" j7776rrrh$ #rihgreghhhhhhhhhhhhs76igjhhhhhhh%hhh ",
" g77677r7h *O$rpdrg$     $hhhhhh8338jjhhhhhh$Ohhh ",
" j7787977g **O$7dr#O*****O$hhhhh3333hhhhhhh$Ohhhh ",
" j7777yy7h ***O$3#O***** *O.hhhh3333hhhhhhj hhhhh ",
" hh85y577j ****OXO********* hhhh3333hhhhhhh jhhhh ",
" jh755597g *****O********** hhhh3333hhhhhhh+hhhhh ",
" hh73y777h ****$ @********$Ohhhh737rhhhhhhhhhhhhh ",
" jg777777h **$ OsO#******$Ohhhhhr3qhhhhhhhhhhhhhh ",
" jh77y87hh $ OhiihO$****$Ohhhhhhhhhhhhhhhhhhhhhhh ",
" hh77g7yhhOOhhgghhhO   OOhhhhhhhhhhhhhhhhhhhhhhhh ",
" hh87hhyhhhhhhhhhhhhkkhhhhhyy&,&&&&&hhhhhhhhhhhhh ",
" jhhghhhhhhhhh:=:hhhhhhhhhh,&&&&&&&&&&hhhhhhhhhhh ",
" hhhjjhhhhhhh:-==hhhhhhhhh&&&&&&&&&&&&&hhhhhhhhhh ",
" hhhjj>=:hhhh==:-hhhhhhhh&&&&&&<l1&&&&&&hhhhhhhhh ",
" jhhhhh=-=:h:-==hhhhhhhhh&&&&&<ll2&&&&&&hhhhhhhhh ",
" hhhhhh===-:====hhhhhhhhh&&&&&&&<l<&&&&&hhhhhhhhh ",
" hhhhhh-:=====:-hhhhhhhhhh&&&&&&&&&&&&&hhhpigghhh ",
" jhhhhhh===--==hhhhhhhhhhhh&&&&&&&&&&&jhjdtwiridh ",
" hhhhhhh-:===:-hhhhhhhhhhhhhj&&&&ettijjdhtwterirh ",
" hhhhhhhh;,===hhhhhhhhhhhhhhjdeeee# $jdrttddddtih ",
" jjjjjhhhh-==-hhhhhhh$     $grdde#O* de3qtddddddh ",
" hjjhhhhhhhhhhhhhhhh$O*****O#rd3@O** jt83ddddddjh ",
" hhghhhhhhhhhhhhhhh.O* *****O#7@O*** jd6iddddddjh ",
" jdiighhhhhhhhhhhhh *********O.O**** jddagdddddjh ",
" jteeeetghhhhhhhjjj **********O***** hijdgjijddhh ",
" dsieeeeiphhhhhhjjjO$********# #**** hjijiijijdhh ",
" jjdeeeeiihhhhhhjjjjO$******#OiO $** jhiaijiddhhh ",
" jjdeeiirihhhhhhdisdhO$****$OdddhO $ hhhkjijddhhh ",
" jjhrrrihhhhhhhhhrrihhO    OhhhsdhhOOhhjhhhdddhhh ",
" jhhsrihhhhhhhhhhrrrrrhhhhhhhhh887hhhhh hhhhhdhhh ",
" hhhhhhhhhhhhhhhhhhhhhhhhhhhhhhi3ehhhh$Ohhhhhhhhh ",
" hhhhhhhhhhhhhhhhhhhhhhhhhhhhhhhghhhhh+hhhhhhhhhh ",
" jjjhjjhjjhjjhjjhhjjhjjhjjhjjhjjhhhhhhhhhhhhhhhhh ",
"                                                  "
};
