/* XPM */
static char *_5dd02a4078645bcd3696a222120f58ciFsVtXfrRQI5YjBO[] = {
/* columns rows colors chars-per-pixel */
"50 50 50 1 ",
"  c black",
". c #080806",
"X c #0B0B07",
"o c #0F0E0A",
"O c #0F0E0B",
"+ c #1E1D16",
"@ c #2C291B",
"# c #2C2A1D",
"$ c #2C2A1E",
"% c #2D2B21",
"& c #5A5642",
"* c gray50",
"= c #FF7F27",
"- c #22B14C",
"; c #2FB452",
": c #3CB859",
"> c #49BB5F",
", c #56BE65",
"< c #6FC572",
"1 c #B2B2B2",
"2 c #B6B6B6",
"3 c gray75",
"4 c #E7D687",
"5 c #E7D689",
"6 c #E7D789",
"7 c #E7D78A",
"8 c #E7D78B",
"9 c #E8D78A",
"0 c #E8D88C",
"q c #E9DA91",
"w c #EADA94",
"e c #EADB96",
"r c #EADC98",
"t c #EBDD9C",
"y c #EBDD9D",
"u c #EBDD9E",
"i c #ECDE9F",
"p c #E1D7A6",
"a c #ECDFA0",
"s c #ECDEA1",
"d c #ECDFA1",
"f c #EDE0A4",
"g c #EDE1A6",
"h c #EDE1A9",
"j c #EEE2AA",
"k c #EEE2AB",
"l c #EFE4B0",
"z c #EFE5B0",
"x c #F1E8BA",
"c c #C3C3C3",
/* pixels */
"                                                  ",
" lllllllllzllzllzllzllllllzzzzzzzzzllzllzllzllzzz ",
" llllllllllllllllllllhiihkzzllllzzzzlkllllllzlzzz ",
" llllhllllllllllllllhyyyaihzllllzzhhdidhllzlzzzzl ",
" zzzlhllllllzzzhllhiytiyyyyyssshzhattatakzllllg0s ",
" zzhlhhhshllz% $yiihzhzhyyyyssszhyiitaaasllzll949 ",
" kiihhhhhhzzh =O$tghhh%     %lszi6qaaaiaszzlg9449 ",
" syyyhhhhhlzz ==o$4hs$o=====O%llhi6aaafikzlg99444 ",
" gstehhhhhl&l ===O@4$o===== =o.lhgiifihhlll64440y ",
" zit5hhhhhlO% ====o.o========= lhiiiiihhlll644elh ",
" zgt5hhhhhll  =====o========== lhhighhhhlllt4tllz ",
" zhghhhhhhll+ ====$ $========%Olhhhhhhhhlllllkllz ",
" zllhhhhhhhsl ==$ OhO$======%Oslhhhhhhhhlllllllll ",
" zllhhhhhllll % OhhhhO%====%Olslhhhlhhhhllllllllz ",
" zlhhhhlllllloohhjhhslO    Osssllllhlhhhlxxllllll ",
" z0h98hlllyysylllllllllllllllslllllllllhlllllllll ",
" l8888yyyaaffyylhajljlzzt$ %llltzzzgkllllllll&lll ",
" l88886y5lal#     %hjzzt$O= llzjzzz6zzllllll%Olll ",
" l8888885ll%O=====O%ylj#O== zzzzzzk6zllllll%Ollll ",
" l8888pp5l.O= =====O#6#O=== 6zzzzzz6zzllllz lllll ",
" ll66p868l =========O.O==== 6zzzzzz6lllllll zllll ",
" ll886685l ==========O===== 6zzzzzz6lllllll+lllll ",
" ll68p868sO%========# #==== qzzzlzkylllllllllllll ",
" ll868686ssO%======#OlO %== lzzzlllllllllllllllll ",
" ll68p86gfakO%====%OzzzzO % lllzlllllllllllllllll ",
" ll86l8pllaafO    Olzzzzll  lllllllllllllllllllll ",
" ll66llplljglllllllllllzlllll*******lllllllllllll ",
" lllllllllllll>->llllllllll***********lllllllllll ",
" llllllllllll>;--lllllllll*************llllllllll ",
" lllll,->llll-->;llllllll******1c2******lllllllll ",
" llllll-;->l>;--lllllllll*****1cc3******lllllllll ",
" llllll---;>----lllllllll*******1c1*****lllllllll ",
" llllll;>----->;llllllzzzl*************lllsskllll ",
" lllllll---;;--lllllllzzlll***********llllsaasaal ",
" lllllll;>-->>;lllzzlzlhlzllz**<*ysiaasllayasaasl ",
" llllllll:<>>>fllll% $iyshllhspyeyssafsyyyaaaausl ",
" lllllllzz;>>ifthhz =o$yhhhh%   ..%lsss5eslsdalll ",
" lllllllzzhfyaay5hs ==o$9hy$o=====O%lss0alslsxsll ",
" llllkllzlzgaaaah4h ===o$4$o===== =O.lssaskssllll ",
" lhsfhllllhaaaaahhh ====o.o========= lksslkplslll ",
" zittttihlzgfiifhh9 =====o========== llslsalallll ",
" kgittttihksiiiiihq ====$ $========%Oxsksllalspll ",
" zlhttttiiksifiiiil ==% OgO$======%Odllalpkllslll ",
" llkttiitddsaiifigl % ohhhhO%====%Oldlllllkfsllll ",
" llliitgzzigafaahiyoohhhhhgho    Osfallllllakfxll ",
" zllgiskzzhhakfkkiytllllllzgllzl8slllll lllllklll ",
" lllllllzlzggzkzllllllllllllllli4tllll%Olllllllll ",
" lllllllllzzzzkzllllllllllllllllklllll+llllllllll ",
" zzllzllzllzllzlllzllzllzllzllzllllllllllllllllll ",
"                                                  "
};
