/* XPM */
static char *b6d8caf71efa45d598a4b0cbda04020ai6VOIaCmm43TyOVk[] = {
/* columns rows colors chars-per-pixel */
"50 50 8 1 ",
"  c black",
". c #694500",
"X c #FA0000",
"o c #FA1C00",
"O c #FA003D",
"+ c #B07400",
"@ c #F6D8AF",
"# c white",
/* pixels */
"                                                  ",
" @@@@@@@@@@@@@@@@@@@@@@@@@@@@@@@@@@@@@@@@@@@@@@@@ ",
" @@@@@@@@@@@@@@@@@@@@@@@@@@@@@@@@@@@@@@@@@@@@@@@@ ",
" @@@@@@@@@@@@@@@@@@@@@@@@@@@@@@@@@@@@@@@@@@@@@@@@ ",
" @@@@@@@@@@@@@@@@@@@@@@@@@@@@@@@@@@@@@@@@@@@@@@@@ ",
" @@@@@@@@@@@@@@@@@@@@@@@@@@@@@@@@@@@@@@@@@@@@@@@@ ",
" @@@@@@@@@@@@@@@@@   @@@@@@@@@@@@@@@@@@@@@@@@@@@@ ",
" @@@@@@@@@@@@@@@  XXX    @@@@@@@@@@@@@@@@@@@@@@@@ ",
" @@@@@@@@@@@@@@  XXXXXXXX @@@@@@@@@@@@@@@@@@@@@@@ ",
" @@@@@@@@@@@@@  XXXXXXXXX  @@@@@@@@@@@@@@@@@@@@@@ ",
" @@@@@@@@@@@@@ XXXXXXXXXXXX @@@@@@@@@@@@@@@@@@@@@ ",
" @@@@@@@@@@@@@ XXXXXXXXXXX # ............@@@@@@@@ ",
" @@@@@@@@@@@@@ XXXXXXXX   ## +++++++++   .@@@@@@@ ",
" @@@@@@@@@@@@@ XXXXX   #### +++++     +++.@@@@@@@ ",
" @@@@@@@@@@@@. XXX  ####   ++    +++++++..@@@@@@@ ",
" @@@@@@@@@@@@. XX  ##           ++++++++..@@@@@@@ ",
" @@@@@@@@@@@. ##        ++++++++    +++.+.@@@@@@@ ",
" @@@@@@@@@@oo ##   +++++++++++++++++   .+.@@@@@@@ ",
" @@@@@@@@@@     ...................... ++.@@@@@@@ ",
" @@@@@@@@@o.o++++++++++++++++++++++++ .++.@@@@@@@ ",
" @@@@@@@@@o.o  ++++++++++++++++++++  +.++.@@@@@@@ ",
" @@@@@@@@@oo+++ ++++++++++++++++++ +++.++.@@@@@@@ ",
" @@@@@@@@@@.o+++ ++++++++++++++++ ++++.++.@@@@@@@ ",
" @@@@@@@@@@ooo+++ ++++++++++++++ +++++.++.@@@@@@@ ",
" @@@@@@@@@o.++++++ ++++++++++++ ++++++.++.@@@@@@@ ",
" @@@@@@@@@oo+o+++++  ++++++++  +++++++.++.@@@@@@@ ",
" @@@@@@@@@@.oo+++++++ ++++++ +++++++++.++.@@@@@@@ ",
" @@@@@@@@@o.++++++++++ ++++ ++++++++++.++.@@@@@@@ ",
" @@@@@@@@@o.ooo++++++++ ++ +++++++++++.++.@@@@@@@ ",
" @@@@@@@@@o.++oo++++++++  ++++++++++++.++.@@@@@@@ ",
" @@@@@@@@@@o+++++++++++ ++ +++++++++++.++.@@@@@@@ ",
" @@@@@@@@@@ooo++++++++ ++++ ++++++++++.++.@@@@@@@ ",
" @@@@@@@@@@.+O++ooo++ ++++++ +++++++++.++.@@@@@@@ ",
" @@@@@@@@@@.OO++oo+  ++++++++  +++++++.++.@@@@@@@ ",
" @@@@@@@@oo.Oo+++o ++++++++++++ ++++++.++.@@@@@@@ ",
" @@@@@@@@@@ooo+++o++++++++++++++ +++++.++.@@@@@@@ ",
" @@@@@@@@@@o+oo+ +o++++++++++++++ ++++.+.@@@@@@@@ ",
" @@@@@@@@@@.o++o++o+++++++++++++++ +++.+.@@@@@@@@ ",
" @@@@@@@ooo.+  oo+o++++++++++++++++  +..@@@@@@@@@ ",
" @@oooooooo. ++++++++++++++++++++++++ ..@@@@@@@@@ ",
" @ooooooooo .......................... @@@@@@@@@@ ",
" @oooXXOoOoooooooooo@@@@@@@@@@@@@@@@@@@@@@@@@@@@@ ",
" @oooOOXXoooooooooo@@@@@@@@@@@@@@@@@@@@@@@@@@@@@@ ",
" @@@XXXXooooo@@@@@o@@@@@@@@@@@@@@@@@@@@@@@@@@@@@@ ",
" @@XXXX@@@@@@@@@@@@@@@@@@@@@@@@@@@@@@@@@@@@@@@@@@ ",
" @@@@@@@@@@@@@@@@@@@@@@@@@@@@@@@@@@@@@@@@@@@@@@@@ ",
" @@@@@@@@@@@@@@@@@@@@@@@@@@@@@@@@@@@@@@@@@@@@@@@@ ",
" @@@@@@@@@@@@@@@@@@@@@@@@@@@@@@@@@@@@@@@@@@@@@@@@ ",
" @@@@@@@@@@@@@@@@@@@@@@@@@@@@@@@@@@@@@@@@@@@@@@@@ ",
"                                                  "
};
