/* XPM */
static char *b357a949cb1b4af09feaa65e8f31f139Qj3e2OQoSUq0d8xc[] = {
/* columns rows colors chars-per-pixel */
"50 50 18 1 ",
"  c black",
". c gray3",
"X c #101010",
"o c #694500",
"O c #784F00",
"+ c #875900",
"@ c #966300",
"# c #B07400",
"$ c #BF7E00",
"% c #CE8800",
"& c #DD9200",
"* c #F6D8AF",
"= c #F8DFBD",
"- c #F9E6CB",
"; c #FBEDD9",
": c #FCF4E7",
"> c #FEFAF5",
", c white",
/* pixels */
"                                                  ",
" ************************************************ ",
" *************--********--*--***::******--******* ",
" ****;;*******-:-=-=**;;::*::**=,,*==**-:-******* ",
" **=-::-=**==**;;=;-**::;;=;-**->;*--*=;-*--***** ",
" **=;-=-;-*=-=*--*--**;:-=;;***->;=-=*;;**;;***** ",
" ***=-=*-;=*=-=;;*--*=;:-=;-**-::-;;*=;-*=-=--*** ",
" ****=;-*--**--;;*--*----;;**=;>;=;-*;;*=;-*::==* ",
" *****-;==;-*;;--*::-;=-;;-**-;;---**;;*-;;;;---* ",
" ******=;--;=;;=-=;;--*->;***;>-*--*=-==--;;=-;=* ",
" *******;;*;;==*::*****->;**=;:-=-=*;;-;=--*=;-** ",
" **-:-**;;*;;**o@@oooooO@+ooO++O++oO@@@+O-=*--*** ",
" **-:;=*--*--*o   #####%&$###%%#$$%&$$..XO*-;=;;* ",
" ****;;****=-=o###    #%%####$$## XX  $%&@-;-=>:* ",
" ****-;-=***;@########     ##    #####$$+@-==--=* ",
" *****=;-***-+##########        ########oo=--=*** ",
" ******=-=**o######     ########    ###o#o;:=**** ",
" **-;=**=-=*o##    #################   o#o--**;;* ",
" **-;-;-*-;.   ooooooooooooooooooooooo ##o***;,;* ",
" ****=;;---O ######################## o##o*-;:;** ",
" ******=-:;o#  ####################  #o#$+-;;=*** ",
" ********;;o### ################## ###o%&+-=***** ",
" **********o#### ################ ####o%%o******* ",
" **********o##### ############## #####o##o******* ",
" **********o###### ############ ######o##o******* ",
" **********o#######  ########  #######o##o******* ",
" **********o######### ###### #########o##o******* ",
" **********o########## #### ##########o##o******* ",
" **********o########### ## ###########o##o******* ",
" **********o############  ############o##o******* ",
" **********o########### ## ###########o##o******* ",
" **********o########## #### ##########o##o******* ",
" **********o######### ###### #########o##o******* ",
" **********o#######  ########  #######o##o******* ",
" **********o###### ############ ######o##o******* ",
" **********o##### ############## #####o##o******* ",
" **********o#### ################ ####o#o******** ",
" **********o### ################## ###o#o******** ",
" **********o#  ####################  #oo********* ",
" **********o ######################## oo********* ",
" ********** oooooooooooooooooooooooooo ********** ",
" ************************************************ ",
" ************************************************ ",
" ************************************************ ",
" ************************************************ ",
" ************************************************ ",
" ************************************************ ",
" ************************************************ ",
" ************************************************ ",
"                                                  "
};
