/* XPM */
static char *_27737dc3fe34ce2ccf8181643446f4f7TNRJP2Bu1t96xsd[] = {
/* columns rows colors chars-per-pixel */
"50 50 4 1 ",
"  c black",
". c #694500",
"X c #B07400",
"o c #F6D8AF",
/* pixels */
"                                                  ",
" oooooooooooooooooooooooooooooooooooooooooooooooo ",
" oooooooooooooooooooooooooooooooooooooooooooooooo ",
" oooooooooooooooooooooooooooooooooooooooooooooooo ",
" oooooooooooooooooooooooooooooooooooooooooooooooo ",
" oooooooooooooooooooooooooooooooooooooooooooooooo ",
" oooooooooooooooooooooooooooooooooooooooooooooooo ",
" oooooooooooooooooooooooooooooooooooooooooooooooo ",
" oooooooooooooooooooooooooooooooooooooooooooooooo ",
" oooooooooooooooooooooooooooooooooooooooooooooooo ",
" oooooooooooooooooooooooooooooooooooooooooooooooo ",
" oooooooooooooo..........................oooooooo ",
" ooooooooooooo.   XXXXXXXXXXXXXXXXXXXX   .ooooooo ",
" ooooooooooooo.XXX    XXXXXXXXXXX     XXX.ooooooo ",
" oooooooooooo.XXXXXXXX     XX    XXXXXXX..ooooooo ",
" oooooooooooo.XXXXXXXXXX        XXXXXXXX..ooooooo ",
" ooooooooooo.XXXXXX     XXXXXXXX    XXX.X.ooooooo ",
" ooooooooooo.XX    XXXXXXXXXXXXXXXXX   .X.ooooooo ",
" oooooooooo    ....................... XX.ooooooo ",
" oooooooooo. XXXXXXXXXXXXXXXXXXXXXXXX .XX.ooooooo ",
" oooooooooo.X  XXXXXXXXXXXXXXXXXXXX  X.XX.ooooooo ",
" oooooooooo.XXX XXXXXXXXXXXXXXXXXX XXX.XX.ooooooo ",
" oooooooooo.XXXX XXXXXXXXXXXXXXXX XXXX.XX.ooooooo ",
" oooooooooo.XXXXX XXXXXXXXXXXXXX XXXXX.XX.ooooooo ",
" oooooooooo.XXXXXX XXXXXXXXXXXX XXXXXX.XX.ooooooo ",
" oooooooooo.XXXXXXX  XXXXXXXX  XXXXXXX.XX.ooooooo ",
" oooooooooo.XXXXXXXXX XXXXXX XXXXXXXXX.XX.ooooooo ",
" oooooooooo.XXXXXXXXXX XXXX XXXXXXXXXX.XX.ooooooo ",
" oooooooooo.XXXXXXXXXXX XX XXXXXXXXXXX.XX.ooooooo ",
" oooooooooo.XXXXXXXXXXXX  XXXXXXXXXXXX.XX.ooooooo ",
" oooooooooo.XXXXXXXXXXX XX XXXXXXXXXXX.XX.ooooooo ",
" oooooooooo.XXXXXXXXXX XXXX XXXXXXXXXX.XX.ooooooo ",
" oooooooooo.XXXXXXXXX XXXXXX XXXXXXXXX.XX.ooooooo ",
" oooooooooo.XXXXXXX  XXXXXXXX  XXXXXXX.XX.ooooooo ",
" oooooooooo.XXXXXX XXXXXXXXXXXX XXXXXX.XX.ooooooo ",
" oooooooooo.XXXXX XXXXXXXXXXXXXX XXXXX.XX.ooooooo ",
" oooooooooo.XXXX XXXXXXXXXXXXXXXX XXXX.X.oooooooo ",
" oooooooooo.XXX XXXXXXXXXXXXXXXXXX XXX.X.oooooooo ",
" oooooooooo.X  XXXXXXXXXXXXXXXXXXXX  X..ooooooooo ",
" oooooooooo. XXXXXXXXXXXXXXXXXXXXXXXX ..ooooooooo ",
" oooooooooo .......................... oooooooooo ",
" oooooooooooooooooooooooooooooooooooooooooooooooo ",
" oooooooooooooooooooooooooooooooooooooooooooooooo ",
" oooooooooooooooooooooooooooooooooooooooooooooooo ",
" oooooooooooooooooooooooooooooooooooooooooooooooo ",
" oooooooooooooooooooooooooooooooooooooooooooooooo ",
" oooooooooooooooooooooooooooooooooooooooooooooooo ",
" oooooooooooooooooooooooooooooooooooooooooooooooo ",
" oooooooooooooooooooooooooooooooooooooooooooooooo ",
"                                                  "
};
