/* XPM */
static char *dddd245159fa45a29a29b14104379917GVPWKG5JSTkdGgpm[] = {
/* columns rows colors chars-per-pixel */
"50 50 122 2 ",
"   c black",
".  c #060504",
"X  c #0F0E0A",
"o  c #0F0E0B",
"O  c #10070A",
"+  c #10080A",
"@  c #10090A",
"#  c #100B0D",
"$  c #1E1D16",
"%  c #2F191E",
"&  c #2F1B1F",
"*  c #2F2325",
"=  c #2D2B20",
"-  c #2D2B21",
";  c #3A3625",
":  c #3C392C",
">  c #5A5642",
",  c gray50",
"<  c #22B14C",
"1  c #2FB452",
"2  c #49BB5F",
"3  c #56BE65",
"4  c #DF7597",
"5  c #ED7C99",
"6  c #F2759A",
"7  c #F7729D",
"8  c #FA709C",
"9  c #F9729D",
"0  c #FD719F",
"q  c #FF719F",
"w  c #FE74A0",
"e  c #FF75A2",
"r  c #FE78A0",
"t  c #FD7BA1",
"y  c #9FB590",
"u  c #ABA693",
"i  c #FC829F",
"p  c #F59A95",
"a  c #DE98B0",
"s  c #FD80A1",
"d  c #FC87A2",
"f  c #FB8EA3",
"g  c #FF81A9",
"h  c #FF83AB",
"j  c #FE87AA",
"k  c #F28FAF",
"l  c #FF88AF",
"z  c #FE8DAE",
"x  c #FF8EB2",
"c  c #FE91B2",
"v  c #FF92B6",
"b  c #FF95B8",
"n  c #FF9BBB",
"m  c #FE9EB9",
"M  c #FF9DBD",
"N  c #FE9FBD",
"B  c #C8AFAA",
"V  c #F7A7A7",
"C  c #F8A0A6",
"Z  c #F7AEA8",
"A  c #F5B8AA",
"S  c #EBAFBE",
"D  c #FDA6BB",
"F  c #F8A2BE",
"G  c #FEA1BC",
"H  c #FDA3BC",
"J  c #FCABBB",
"K  c #FBAFBA",
"L  c #FBB4BB",
"P  c #F9B9B9",
"I  c #F8BAB8",
"U  c #D5CC9D",
"Y  c #E7D687",
"T  c #E7D688",
"R  c #E7D689",
"E  c #E7D78A",
"W  c #E7D78B",
"Q  c #E8D78A",
"!  c #E8D88C",
"~  c #E9D990",
"^  c #E9DA91",
"/  c #EADA94",
"(  c #EADB96",
")  c #EADC98",
"_  c #EBDD9C",
"`  c #EBDD9D",
"'  c #EBDD9E",
"]  c #ECDE9F",
"[  c #D9CFA0",
"{  c #F3CBAC",
"}  c #E3D9A7",
"|  c #ECDFA0",
" . c #ECDEA1",
".. c #ECDFA1",
"X. c #F7C1B7",
"o. c #F7C3B6",
"O. c #F8C4BF",
"+. c #F7CBBB",
"@. c #ECE0A3",
"#. c #EDE0A4",
"$. c #EDE0A5",
"%. c #EDE1A6",
"&. c #EDE1A9",
"*. c #EEE2AA",
"=. c #EDE2AE",
"-. c #EFE4AF",
";. c #EFE4B0",
":. c #FFA4C2",
">. c #FFA6C3",
",. c #FEAAC2",
"<. c #FFAAC6",
"1. c #FFABC6",
"2. c #F8AFC5",
"3. c #FFAEC7",
"4. c #FFAEC9",
"5. c #FCB4C3",
"6. c #FEB1C7",
"7. c #FDB5C6",
"8. c #FCB8C4",
"9. c #FEB0C8",
"0. c #FEB0C9",
"q. c gray94",
/* pixels */
"                                                                                                    ",
"  ;.;.;.;.;.;.;.;.;.;.;.;.;.;.;.;.;.;.;.;.;.;.;.;.;.;.;.;.;.;.;.;.;.;.;.;.;.;.;.;.;.;.;.;.;.;.;.;.  ",
"  ;.;.;.;.;.;.;.;.;.;.;.;.;.;.;.;.;.;.;.;.*.]  .*.;.;.;.;.;.;.;.;.;.-.-.;.;.;.-.;.;.;.;.;.;.;.;.;.  ",
"  ;.;.;.;.;.-         - ;.;.;.;.;.;.;.;.*._ _ _ _ _ *.;.;.;.;.;.;.;.;.*.] _ ] *.;.;.;.;.;.;.;.;.;.  ",
"  ;.;.;.;.* # 4.4.4.8.  ;.;.;.;.;.;.*._ _ _ _ _ _ _ _ ;.;.;.;.;.;.*.] _ _ _ _ _ *.=.;.;.;.;.#.~  .  ",
"  ;.;.;.* # 4.4.4.4.q o ;.;.;.;.*.] _ _ _ _ _ _ _ _ %.;.;.;.;.;.=._ ] _ _ _ _ _ ] ;.;.;.;.;.Q Y Q   ",
"  *.] % O 1.1.f q q q - ;.;.;.;.] _ _ _ _ _ _ %.;.;.;.;.;.;.;.*._ / R R / _ _ _ _ ;.;.=.%.! Y Y Y   ",
"  ] _   q q.q q q q q   ;.;.;.;.%._ _             ;.;.;.;.          Y Y R _ _ _ _ -.;.%.Q Y Y Y Y   ",
"  %._   4.g w q w 4.- [ ;.;.;.;.        4.4.4.7.            4.4.4.  Y Y ~ _ _ _ %.;.;.W Y Y Y Y _   ",
"  ;._   4.4.4.4.q.4.  ;.=.;.;.    7.4.4.4.4.4.4.4.4.4.4.4.4.4.4.o.  _ _ _ _ _ %.-.;.;.R Y Y _ ;.=.  ",
"  ;.%.  P 4.4.4.4.6.. } ;.;.;.  7.4.4.4.4.4.4.4.4.4.4.4.4.4.4.0.{   _ _ _ _ %.;.;.;.;._ Y ( ;.;.;.  ",
"  ;.;.  ; 1.1.M M J $   U ;.;.    4.q.4.4.4.4.4.4.4.4.4.4.4.4.4.0.  _ _ _                 -.;.;.;.  ",
"  ;.;.  J M M M J G J q.- ;.;.+.  q.q.4.4.4.4.4.4.4.4.4.4.4.4.4.4.  _ %.    D M M M M D     ;.;.;.  ",
"  ;.;.  M M M M M M M K   ;.;.;.  q.4.4.4.4.4.4.4.4.q.q.4.4.4.4.O.  ;.;.  D M M M M M M M   ;.;.;.  ",
"  ;.f   v M M n q.q q q @ - ;.;.  q q q q q q q q q q q.s A         ;.    M M M M M q.M M   ;.;.;.  ",
"  ;.;.  q.w q q q q q q f   ;.;.  q q q q q q q q q q q.q w     ;.;.;.  o.M M M M M M M c     ;.;.  ",
"  ;.- @ d r q q q q w r - o ;.    q q q q q q q q q q q q q w   %.! !   s s V s q q q q q 9   ;.;.  ",
"  ;.o & q q q q w -     o ;.;.  s q q q q q q q q q q q q q q   ! Y Y   q q q q q q q q q q   ;.;.  ",
"  ;.;.o           X _ _ ;.;.;.  q q q q q q q q q q q q w w C   R R Y   q q q.q q q q q q q   ;.;.  ",
"  ;.;.;.;.;.-.*._ _ _ _ ;.;.*.  q q q q q q q q q q q q q g D   Y Y Y   z q q.q q q q q q j     ;.  ",
"  ;.;.;.;.*.] _ _ _ _ _ ;.;.    M l q q.q.q q q q q w g M M M     Y     M M M M M M M M M M G   ;.  ",
"  ;.;.*.] _ _ _ _ _ _ _ ;.    M M M M q.M M M M M M M M M M M P   Y   M M M M M M M M M M M P       ",
"  ;.;.] _ _ _ _ _ _ _ %.;.  M M M M M M M M M M M M M M M M M D       M M M M M M M M M M L 7.7.    ",
"      %._ _ _ _ _ _ _ ;.    M M M M M M M M M M M M M M M M M M     5.4.4.4.4.4.4.4.4.4.4.4.4.4.0.  ",
"  M   ;.;.;.;.%._ _ %.    J M M M M M M M M M M M M M M M M M M M   4.4.4.4.4.4.4.4.4.q.q.4.4.4.4.  ",
"  M   ;.;.;.;.;.;.;.=.  M M D J M M M M M M M M M M M M M M M M M   4.4.4.4.4.4.4.4.4.4.4.4.4.4.m   ",
"  M     ;.;.;.;.;.;.    M M M M M M M M M M M M M M M M M M M M M   4 k 4.4.q.4.4.4.4.4.4.4.4.b q   ",
"  M M   ;.;.;.;.;.;.  ,.M M M M M M M M M M M M M M M M M M M M F   , 7 q q q q q q q q q q q r q   ",
"  M M   ;.;.;.;.;.;.  4.4.>.M q.q.q.M M M M M M M M M M M :.4.4.4.    q 9 q q q q q q q q q q q r   ",
"  M q   ;.;.3 < 2 ;.  4.4.4.4.4.q.q.M M M M M M M :.4.4.4.4.4.4.4.4.    7 q q q q q q q f q.q       ",
"  q.q   ;.;.;.< 1     6.4.4.4.4.4.4.4.4.4.4.4.4.4.4.4.4.4.4.4.4.4.4.4.          r q q q q       ;.  ",
"  q q   ;.;.;.< <   S 4.4.4.4.4.4.4.4.4.4.4.4.4.4.4.4.4.4.4.4.4.4.4.4.    , ,               ;.;.;.  ",
"  q q   ;.;.;.1 2   4.4.4.B y 4.4.4.4.4.4.4.4.4.4.4.4.4.4.4.4.4.4.4.4.4.    , ;.;.;.=. .*.-.;.;.;.  ",
"  q q   ;.;.;.;.<   6.4.4.4.4.4.4.4.4.4.4.4.4.4.4.4.4.4.4.4.4.4.b x 4.4.a   ;.;.;.*._ _ _ _ _ *.;.  ",
"  q     ;.;.;.;.1   u 4.4.4.4.4.4.4.4.4.4.4.4.4.4.4.4.4.4.b q q.q q q q w   ;.;.;._ _ _ _ _ _ _ ;.  ",
"      ;.;.;.;.;.;.  5 x 4.4.4.4.4.4.4.4.4.4.4.4.4.4.b q q q q q.q.q.q q q   ;.;.;._ _ _ _ _ _ %.;.  ",
"  ;.;.;.;.;.;.;.    6 q q q q q q q q q q q q q q q q q q q q.q.q.q q q q   ;.;.;._ _ _ _ _ _ ;.;.  ",
"  ;.;.;.;.;.;.;.  t q q q q.q q q q q q q q q q q q q q q q q q.q q q q q   ;.;.;._ _ _ _ _ ..;.;.  ",
"  ;.;.;.;.=.;.;.  q q q t q.q.q q q q q q q q q q q q q q q q q i s q q q   ;.;.;._ _ _ _ _ ;.;.;.  ",
"  ;.*.] ] *.;.;.  w q q q q t d q q q q q q q q q q q q q q q q q q q q q   ;.;.;._ _ _ _ %.;.;.;.  ",
"  -.] _ _ _ _  .    w q q q q q q q q q q q q q q q q q q q q q q q q w     ;.;.;.*._ _ ..;.;.;.;.  ",
"  -.%.] _ _ _ _ _     Z q q q q q q q q q q q q q q q q q q q q q w       ;.;.;.;.;.;.;.;.;.;.;.;.  ",
"  ;.;.%._ _ _ _ _ _       Z q q q q w w q q q q q q q q q q q p       ;.;.;.;.;.;.;.;.;.;.;.;.;.;.  ",
"  ;.;.=._ _ _ ] _ %.;.;.                                          R ;.;.;.;.;.> ;.;.;.;.;.;.;.;.;.  ",
"  ;.;.;._ _ _ ..;.;.;.;.;.;.;.;.;._ _  ._ _ _ _ ;.;.;.;.;.    Y R Y -.;.;.;.;.  : ;.;.;.;.;.;.;.;.  ",
"  ;.;.;.%._ %.;.;.;.;.;.;.;.;.;.;._ _ _ _ _ _ ;.;.;.;.;.;.;.;.Q Y Y ;.;.;.;.;.  ;.;.;.;.;.;.;.;.;.  ",
"  ;.;.;.;.;.;.;.;.;.;.;.;.;.;.;.;.;.;.;.;.;.;.;.;.;.;.;.;.;.=.] Y _ ;.;.;.;.- o ;.;.;.;.;.;.;.;.;.  ",
"  ;.;.;.;.;.;.;.;.;.;.;.;.;.;.;.;.;.;.;.;.;.;.;.;.;.;.;.;.;.-.;.=.;.;.;.;.;.$ ;.;.;.;.;.;.;.;.;.;.  ",
"  ;.;.;.;.;.;.;.;.;.;.;.;.;.;.;.;.;.;.;.;.;.;.;.;.;.;.;.;.;.;.;.-.-.;.;.;.;.;.;.;.;.;.;.;.;.;.;.;.  ",
"                                                                                                    "
};
