/* XPM */
static char *_f35e812c24149c3da67af7eaa66da99vmAlbkEjXTCl4Qme[] = {
/* columns rows colors chars-per-pixel */
"50 50 5 1 ",
"  c black",
". c #694500",
"X c #FDD39A",
"o c #F6D8AF",
"O c #F8DFBD",
/* pixels */
"                                                  ",
" OOOOOOOOOOOOOOOOOOOOOOOOOOOOOOOOOOOOOOOOOOOOOOOO ",
" OOOOOOOOOOOOOOOOOOOOOOOOOOOOOOOOOOOOOOOOOOOOOOOO ",
" OOOOOOOOOOOOOOOOOOOOOOOOOOOOOOOOOOOOOOOOOOOOOOOO ",
" OOOOOOOO  OOOOOOOOOOOOOOOOOOOOOOOOOOOOO  OOOOOOO ",
" OOOOOOO .. OOOOOOOOOOOOOOOOOOOOOOOOOOO .. OOOOOO ",
" OOOOOOOO..OOOOOOOOOOOOOOOOOOOOOOOOOOOOO..OOOOOOO ",
" OOOOOOOO..OOOOOOOOOOOOOOOOOOOOOOOOOOOOO..OOOOOOO ",
" OOOOOOOO..OOOOOOOOOOOOOOOOOOOOOOOOOOOOO..OOOOOOO ",
" OOOOOOOO..OOOOOOOOOOOOOOOOOOOOOOOOOOOOO..OOOOOOO ",
" OOOOOOOO..OOOOOOOOOOOOOOoOOOOOOOOOOOOOO..OOOOOOO ",
" OOOOOOOO..OOOOOOOOOOOOOOOOOOOOOOOOOOOOO..OOOOOOO ",
" OOOOOOOO..OOOOOOOOOOOOOOOOOOOOOOOOOOOOO..OOOOOOO ",
" OOOOOOOO..OOOOOOOOOOOOOOOOOOOOOOOOOOOOO..OOOOOOO ",
" OOOOOOOO..OOOOOOOOOOOOOOOOOOOOOOOOOOOOO..OOOOOOO ",
" OOOOOOOO..OOOOOOOOOOOOOOOOOOOOOOOOOOOOO..OOOOOOO ",
" OOOOOOOO..OOOOOOOOOOOOOOOOOOOOOOOOOOOOO..OOOOOOO ",
" OOOOOOOO..OOOOOOOOOOOOOOOOOOOOOOOOOOOOO..OOOOOOO ",
" OOOOOOOO..OOOOOOOOOOOOOOOOOOOOOOOOOOOOO..OOOOOOO ",
" OOOOOOOO..OOOOOOOOOOOOOOOOOOOOOOOOOOOOO..OOOOOOO ",
" OOOOOOOO..OOOOOOOOOOOOOOOOOOOOOOOOOOOOO..OOOOOOO ",
" OOOOOOOO..OOOOOOOOOOOOOOOOOOOOOOOOOOOOO..OOOOOOO ",
" OOOOOOOO..OOOOOOOOOOOOOOOOOOOOOOOOOOOOO..OOOOOOO ",
" OOOOOOOOOOXOOOOOOOOOOOOOOOOOOOOOOOOOOOXOOOOOOOOO ",
" OOOOO   OOOXOOOOOOOOOOOOOOOOOOOOOOOOOXOOO   OOOO ",
" OOOO ... OOOXXOOOOOOOOOOOOOOOOOOOOOXXOOO ... OOO ",
" OOOO ... OOOOOXOOOOOOOOOOOOOOOOOOOXOOOOO ... OOO ",
" OOOOO...OOOOOOOXOOOOOOOOOOOOOOOOOXOOOOOOO...OOOO ",
" OOOOO...OOOOOOOOXXOOOOOOOOOOOOOXXOOOOOOOO...OOOO ",
" OOOOO...OOOOOOOOOOXOOOOOOOOOOOXOOOOOOOOOO...OOOO ",
" OOOOO...OOOOOOOOOOOXOOOOOOOOOXOOOOOOOOOOO...OOOO ",
" OOOOO...OOOOOOOOOOOOXXOOOOOXXOOOOOOOOOOOO...OOOO ",
" OOOOO...OOOOOOOOOOOOOOXOOOXOOOOOOOOOOOOOO...OOOO ",
" OOOOO...OOOOOOOOOOOOOOOXOXOOOOOOOOOOOOOOO...OOOO ",
" OOOOO...OOOOOOOOOOOOOOOXXXOOOOOOOOOOOOOOO...OOOO ",
" OOOOO...OOOOOOOOOOOOOOXOOOXOOOOOOOOOOOOOO...OOOO ",
" OOOOO...OOOOOOOOOOOOOXOOOOOXOOOOOOOOOOOOO...OOOO ",
" OOOOO...OOOOOOOOOOOOXOOOOOOOXOOOOOOOOOOOO...OOOO ",
" OOOOO...OOOOOOOOOOXXOOOOOOOOOXXOOOOOOOOOO...OOOO ",
" OOOOO...OOOOOOOOOXOOOOOOOOOOOOOXOOOOOOOOO...OOOO ",
" OOOOO...OOOOOOOOXOOOOOOOOOOOOOOOXOOOOOOOO...OOOO ",
" OOOOO...OOOOOOXXOOOOOOOOOOOOOOOOOXXOOOOOO...OOOO ",
" OOOOO...OOOOOXOOOOOOOOOOOOOOOOOOOOOXOOOOO...OOOO ",
" OOOOO...OOOOXOOOOOOOOOOOOOOOOOOOOOOOXOOOO...OOOO ",
" OOOOO...OOXXOOOOOOOOOOOOOOOOOOOOOOOOOXXOO...OOOO ",
" OOOOO...OXOOOOOOOOOOOOOOOOOOOOOOOOOOOOOXO...OOOO ",
" OOOOO...XOOOOOOOOOOOOOOOOOOOOOOOOOOOOOOOX...OOOO ",
" OOOOOOOOOOOOOOOOOOOOOOOOOOOOOOOOOOOOOOOOOOOOOOOO ",
" OOOOOOOOOOOOOOOOOOOOOOOOOOOOOOOOOOOOOOOOOOOOOOOO ",
"                                                  "
};
