/* XPM */
static char *_712733297fb4a3f80bf38e665740117cUoc8pOo0COVD3qE[] = {
/* columns rows colors chars-per-pixel */
"50 50 6 1 ",
"  c black",
". c #694500",
"X c red",
"o c #FDD39A",
"O c #F6D8AF",
"+ c #F8DFBD",
/* pixels */
"                                                  ",
" ++++++++++++++++++++++++++++++++++++++++++++++++ ",
" ++++++++++++++++++++++++++++++++++++++++++++++++ ",
" ++++++++++++++++++++++++++++++++++++++++++++++++ ",
" ++++++++  +++++++++++++++++++++++++++++  +++++++ ",
" +++++++ .. +++++++++++++++++++++++++++ .. ++++++ ",
" ++++++++..+++++++++++++++++++++++++++++..+++++++ ",
" ++++++++..+++++++++++++++++++++++++++++..+++++++ ",
" ++++++++..+++++++++++++++++++++++++++++..+++++++ ",
" ++++++++..+++++++++++++++++++++++++++++..+++++++ ",
" ++++++++..++++++++++++++O++++++++++++++..+++++++ ",
" ++++++++..+++++++++++++++++++++++++++++..+++++++ ",
" ++++++++..+++++++++++++++++++++X+++++++..+++++++ ",
" ++++++++..++++++++++++++++++++XX++o++++..+++++++ ",
" ++++++++..+++oo+XX++++++++++++XXoo+++++..+++++++ ",
" ++++++++..+++++XXXX++++++++++XXo+++++++..+++++++ ",
" ++++++++..++++++oXXX++++++++XXo++++++++..+++++++ ",
" ++++++++..+++++++oXX+++++++XXX++XXXX+++..+++++++ ",
" ++++++++..+XXX+++++X++XXXXXX++XXXX+++++..+++++++ ",
" ++++++++..++XXX++++XXXXXXXXX++XXX++++++..+++++++ ",
" ++++++++..+++XXX+++XXXXXXXXXXXXX+++++++..+++++++ ",
" ++++++++..++++XXXX+XXXXXXXXXX+XX+++++++..+++++++ ",
" ++++++++..++++++XXXXXXXXXXXXX++++++++++..+++++++ ",
" ++++++++++o++++++XXXXXXXXXXXX+++++++++o+++++++++ ",
" +++++   +++o+++++XXXXXXXXXXXX++++++++o+++   ++++ ",
" ++++ ... ++++++++XXXXXXXXXXXo+++++++o+++ ... +++ ",
" ++++ ... ++++++++XXXXXXXXXXXXo++++++++++ ... +++ ",
" +++++...+++++++ooXXXXXXXXXXXXXoo+++++++++...++++ ",
" +++++...++++++o+XXXXXXXXXX++XXX+o++++++++...++++ ",
" +++++...+++++o++XXXX  X  +++XXX++o+++++++...++++ ",
" +++++...+++++++XXXX+  +  ++XXXX++++++++++...++++ ",
" +++++...+++++++XXXXX+++++XXXXXX++++++++++...++++ ",
" +++++...+++++++XXXXXX++++XXXXXX++++++++++...++++ ",
" +++++...+++++++XXXXXX++++XXXXXX++++++++++...++++ ",
" +++++...+++++++XXX++++++++XXXXX++++++++++...++++ ",
" +++++...+++++++XXXX++++++XXXXX+++++++++++...++++ ",
" +++++...+++++++XXXXXX+++XXXXX++++++++++++...++++ ",
" +++++...+++++++XXXXXX+++XXXX+++++++++++++...++++ ",
" +++++...+++++++++++++++++++++++++++++++++...++++ ",
" +++++...+++++++++++++++++++++++++++++++++...++++ ",
" +++++...+++++++++++++++++++++++++++++++++...++++ ",
" +++++...+++++++++++++++++++++++++++++++++...++++ ",
" +++++...+++++++++++++++++++++++++++o+++++...++++ ",
" +++++...++++o+++++++++++++++++++++++o++++...++++ ",
" +++++...++oo+++++++++++++++++++++++++oo++...++++ ",
" +++++...+o+++++++++++++++++++++++++++++o+...++++ ",
" +++++...o+++++++++++++++++++++++++++++++o...++++ ",
" ++++++++++++++++++++++++++++++++++++++++++++++++ ",
" ++++++++++++++++++++++++++++++++++++++++++++++++ ",
"                                                  "
};
