/* XPM */
static char *_940609a40474bb8939d07f9c7da42abw7G6qqTNCFIHXs1a[] = {
/* columns rows colors chars-per-pixel */
"50 50 6 1 ",
"  c black",
". c #694500",
"X c red",
"o c #FDD39A",
"O c #F6D8AF",
"+ c #F8DFBD",
/* pixels */
"                                                  ",
" ++++++++++++++++++++++++++++++++++++++++++++++++ ",
" ++++++++++++++++++++++++++++++++++++++++++++++++ ",
" ++++++++++++++++++++++++++++++++++++++++++++++++ ",
" ++++++++  +++++++++++++++++++++++++++++  +++++++ ",
" +++++++ .. +++++++++++++++++++++++++++ .. ++++++ ",
" ++++++++..+++++++++++++++++++++++++++++..+++++++ ",
" ++++++++..+++++++++++++++++++++++++++++..+++++++ ",
" ++++++++..+++++++++++++++++++++++++++++..+++++++ ",
" ++++++++..+++++++++++++++++++++++++++++..+++++++ ",
" ++++++++..++++++++++++++O++++++++++++++..+++++++ ",
" ++++++++..+++++++++++++++++++++++++++++..+++++++ ",
" ++++++++..+++++++++++++++++++++++++++++..+++++++ ",
" ++++++++..+++++++++++++++++++++++++++++..+++++++ ",
" ++++++++..+++++++++++++++++++++++++++++..+++++++ ",
" ++++++++..+++++++++++++++++++++++++++++..+++++++ ",
" ++++++++..+++++++++++++++++++++++++++++..+++++++ ",
" ++++++++..+++++++++++++++++++++++++++++..+++++++ ",
" ++++++++..++++++++++XXXX+++XXXXXX++++++..+++++++ ",
" ++++++++..+++++++++XXXXX+++XXXXXX++++++..+++++++ ",
" ++++++++..++++++++XXXXX++++++XXXX++++++..+++++++ ",
" ++++++++..+++++++XXXXX++++++++XXX++++++..+++++++ ",
" ++++++++..+++++++XXXXXX++++XXXXXX++++++..+++++++ ",
" ++++++++++o++++++XXXXXX++++XXXXXX+++++o+++++++++ ",
" +++++   +++o+++++XXXXXX+++++XXXXX++++o+++   ++++ ",
" ++++ ... +++oo+++XXXX++  +  +XXXX++oo+++ ... +++ ",
" ++++ ... +++++o++XXX+++  X  XXXX++o+++++ ... +++ ",
" +++++...+++++++o+XXX++XXXXXXXXXX+o+++++++...++++ ",
" +++++...++++++++ooXXXXXXXXXXXXXoo++++++++...++++ ",
" +++++...++++++++++oXXXXXXXXXXXX++++++++++...++++ ",
" +++++...+++++++++++oXXXXXXXXXXX++++++++++...++++ ",
" +++++...+++++++++++XXXXXXXXXXXX++++++++++...++++ ",
" +++++...+++++++++++XXXXXXXXXXXX++++++++++...++++ ",
" +++++...+++++++++++XXXXXXXXXXXXX+++++++++...++++ ",
" +++++...++++++++XX+XXXXXXXXXX+XXXX+++++++...++++ ",
" +++++...++++++++XXXXXXXXXXXXX+++XXX++++++...++++ ",
" +++++...+++++++XXX++XXXXXXXXX++++XXX+++++...++++ ",
" +++++...++++++XXXX++XXXXXX++X+++++XXX++++...++++ ",
" +++++...++++XXXX++XXX+++++++XXo++++++++++...++++ ",
" +++++...+++++++++oXX++++++++XXXo+++++++++...++++ ",
" +++++...++++++++oXX++++++++++XXXX++++++++...++++ ",
" +++++...++++++ooXX++++++++++++XX+oo++++++...++++ ",
" +++++...+++++o++XX+++++++++++++++++o+++++...++++ ",
" +++++...++++o+++X+++++++++++++++++++o++++...++++ ",
" +++++...++oo+++++++++++++++++++++++++oo++...++++ ",
" +++++...+o+++++++++++++++++++++++++++++o+...++++ ",
" +++++...o+++++++++++++++++++++++++++++++o...++++ ",
" ++++++++++++++++++++++++++++++++++++++++++++++++ ",
" ++++++++++++++++++++++++++++++++++++++++++++++++ ",
"                                                  "
};
