/* XPM */
static char *_8bb0c3af0454feb97a7d073bafe45a1TARNSd1lDdjWWtit[] = {
/* columns rows colors chars-per-pixel */
"50 50 6 1 ",
"  c black",
". c #694500",
"X c red",
"o c #FDD39A",
"O c #F6D8AF",
"+ c #F8DFBD",
/* pixels */
"                                                  ",
" ++++++++++++++++++++++++++++++++++++++++++++++++ ",
" ++++++++++++++++++++++++++++++++++++++++++++++++ ",
" ++++++++++++++++++++++++++++++++++++++++++++++++ ",
" ++++++++  +++++++++++++++++++++++++++++  +++++++ ",
" +++++++ .. +++++++++++++++++++++++++++ .. ++++++ ",
" ++++++++..+++++++++++++++++++++++++++++..+++++++ ",
" ++++++++..+++++++++++++++++++++++++++++..+++++++ ",
" ++++++++..+++++++++++++++++++++++++++++..+++++++ ",
" ++++++++..+++++++++++++++++++++++++++++..+++++++ ",
" ++++++++..++++++++++++++O++++++++++++++..+++++++ ",
" ++++++++..+++++++++++++++++++++++++++++..+++++++ ",
" ++++++++..+++++++++++++++++++++++++++++..+++++++ ",
" ++++++++..++++++X++++++++++++++++++++++..+++++++ ",
" ++++++++..++o+++X++++++++++++++++++++++..+++++++ ",
" ++++++++..+++o++XX++++++++++o++++++++++..+++++++ ",
" ++++++++..+++o++XXX++++++++o+++++++++++..+++++++ ",
" ++++++++..+XXXo++XXXX+++++o++++++++++++..+++++++ ",
" ++++++++..++XXXo+XXXX+++++oXXXXXXX+++++..+++++++ ",
" ++++++++..++++XXX++X+++++oXXXXXXXXX++++..+++++++ ",
" ++++++++..+++++XX++XXXXXoXXXXXXXXXXX+++..+++++++ ",
" ++++++++..++++++XXXXXXXXXXX++XXXXXXXX++..+++++++ ",
" ++++++++..+++++++XXXXXXXXXX+++XXXXXXX++..+++++++ ",
" ++++++++++o++++++XXXXXXXXXXX++XXX+XXX+++++++++++ ",
" +++++   +++++++++XXXXXXXXXXX  +++++XX++++   ++++ ",
" ++++ ... ++++++++XXXXXXXXXXX  ++++++++++ ... +++ ",
" ++++ ... ++++++++XXXXXXXXXXXX+++++++++++ ... +++ ",
" +++++...++++++++++XXXXXXXXXX  +++++++++++...++++ ",
" +++++...++++++++++XXXXXXXXXX  +XX++XX++++...++++ ",
" +++++...+++++++XXXXXXXXXXXXXX+XXX++XX++++...++++ ",
" +++++...++++++XXX++++XXXXXXXXXXXX+XXX++++...++++ ",
" +++++...+++++XXXo+++XXXXXXXXXXXXXXXXX++++...++++ ",
" +++++...+++++XXo++++XX++++oXXXXXXXXXX++++...++++ ",
" +++++...++++++X++++XX+++++o++XXXXXXXX++++...++++ ",
" +++++...+++++o++++XXX++++++o+++++++++++++...++++ ",
" +++++...+++++o+++XXX++++++++o++++++++++++...++++ ",
" +++++...+++++++++XX++++++++++++++++++++++...++++ ",
" +++++...+++++++++X+++++++++++++++++++++++...++++ ",
" +++++...+++++++++++++++++++++++++++++++++...++++ ",
" +++++...+++++++++++++++++++++++++++++++++...++++ ",
" +++++...+++++++++++++++++++++++++++++++++...++++ ",
" +++++...+++++++++++++++++++++++++++++++++...++++ ",
" +++++...+++++++++++++++++++++++++++o+++++...++++ ",
" +++++...++++o+++++++++++++++++++++++o++++...++++ ",
" +++++...++oo+++++++++++++++++++++++++oo++...++++ ",
" +++++...+o+++++++++++++++++++++++++++++o+...++++ ",
" +++++...o+++++++++++++++++++++++++++++++o...++++ ",
" ++++++++++++++++++++++++++++++++++++++++++++++++ ",
" ++++++++++++++++++++++++++++++++++++++++++++++++ ",
"                                                  "
};
