/* XPM */
static char *e63c62d80d1c43d1ff0b7edf8b3f0a3abnpJYoyQ6VNYOp7L[] = {
/* columns rows colors chars-per-pixel */
"50 50 70 1 ",
"  c black",
". c #040403",
"X c #0F0202",
"o c #0F0404",
"O c #0F0E0B",
"+ c #1E1D16",
"@ c #3B0709",
"# c #2D2B21",
"$ c #3C392C",
"% c #5A5642",
"& c gray50",
"* c #C1171D",
"= c #C71C21",
"- c #EB1F27",
"; c #EC1C24",
": c #ED1C25",
"> c #EE1C24",
", c #EE1D24",
"< c #ED1E26",
"1 c #ED1F26",
"2 c #D92F35",
"3 c #D2353B",
"4 c #ED2126",
"5 c #E6222A",
"6 c #ED2229",
"7 c #EC272A",
"8 c #ED262B",
"9 c #EE262A",
"0 c #EE262B",
"q c #ED282D",
"w c #EE2A2D",
"e c #E52F36",
"r c #EE2F32",
"t c #EC3431",
"y c #ED3636",
"u c #ED3933",
"i c #EC3F36",
"p c #ED3C3B",
"a c #ED4037",
"s c #EE413C",
"d c #EE423E",
"f c #EC4B3D",
"g c #E63C42",
"h c #C44247",
"j c #ED4C42",
"k c #ED4C43",
"l c #EE4E47",
"z c #EE6859",
"x c #EE6E5D",
"c c #3CB859",
"v c #EE866E",
"b c #EE997C",
"n c #E7D687",
"m c #E7D689",
"M c #E8D78A",
"N c #E8D88C",
"B c #E9DA91",
"V c #EADB96",
"C c #EADC98",
"Z c #EBDD9C",
"A c #ECDE9F",
"S c #ECDEA1",
"D c #ECE0A3",
"F c #EDE0A4",
"G c #EDE1A9",
"H c #EEE2AA",
"J c #EFE4B0",
"K c #FEFDFA",
"L c #FFFBFC",
"P c #FEFEFC",
/* pixels */
"                                                  ",
" JJJSmnnCJJJJJJJJJJJJJJJJJJJJJJJJJJJJJJJJJJJJJJJJ ",
" JJJBmnnnJJJJJJJJJJJJJJJJJJJJJJJJGAFJJJJJJJJJJJJJ ",
" JJJFmnnnCJJJJJJJJDJJJJJJJJJJJJJHS     JJJJJJJJJJ ",
" JJJJJNnnnVJJJJJDDDJJJJJJJJJJJJJJA 8d,  JJJJJJJJJ ",
" JJJJJFMMMnJJJJJDDDFJJJJJJJJJJJJFZ wsy, FJJJJJJJJ ",
" JJJJJJFN            +   JJJJJJJSA ;;;8 AJJ   JJJ ",
" JJJJJJJ  r;,,;;,8d,,,,,   JJJJ    >k;A ZJJ l  JJ ",
" JJJJJJ  l,d;,;,l8,,;;;,,6 JJJ  ,;;8d>  FJ  ,l JJ ",
" JJJGZZ ,88d,;y;;,r>;;;,y, JJJ ,>d;>8, JJ  ;;, JJ ",
" JJGZZ  kw,,;;8,;;>     l;  DF ,>;ylk  J  ;;*; JJ ",
" JJAZZ ,;;;;;,,,>;> JJJ ,;, D  ,>wd   J  ,;4d8 JJ ",
" JJZZZ ,;;d;;;>>;>; JJJ ;;, D ,,;2  JJ  z>z>,y JJ ",
" JJSZZ ,;;,>>;8>>;> JJJ ;;,   ;33; JJJ ;k>;y   JJ ",
" JJGZZ ,;8;>  ylkf> nnA ;;;h;,;;;;     ,>>8  JJJJ ",
" JJJAZ ,;;    lla>  nn  >r,;,;;;;;,yk,8lkk  JJJJJ ",
" JJJGA ;,, CS ;;>  nn  7ld;35;;;;,,;,8d;>, Jn%VJJ ",
" JJJJG ,;  AA ;;, MnM ,,8;;;>,;>>;,;6,;;8i J#OnJJ ",
" JJJJJ ,; ACZ ;;  J#  X,,;;;,eg>;>;;wj>8i8 #OMAJJ ",
" JJJJJ ,l CAA ,l JJ PL d,;;;5>>;>>;;;;6t4,, JJJJJ ",
" JJJJJ d> AAG  , JJ K@ d>>;>,;;>;4,;;>;ti>>  JJJJ ",
" JJJJJ    JJJJ   JJ#  X;,;>;;;>;>>;;>;>;t;;u JJJJ ",
" JJJJJJJJJJJJJJJJJJJJ ,;;;;>2>;>>5dw>7p>7;;; JJJJ ",
" JJGASJJJJJJJJJJJJJJJ ,,>;>0;>;>>>>>ys,8;l;; JJJJ ",
" JJSASJJJJJJJJJJJJJJJ ;;;>>;>>;>;>;>>>>,;k,; JJJJ ",
" JFZZGJJJJJJJJJJJJJSJ ;;>;;p0;>;>;>>,><8l;,; JJJJ ",
" JAZAC    JJJJ   JJ.# o,;;k>;;;>;>>0t;0lp8,; JJJJ ",
" JAACA ,w JJJJ w  J L@ ,>>>>;,,,;;,;;;>>6kw, ZJJJ ",
" JGAAZ l, JJJc ;w J$PP l<;>;>;>;;>;>;;,yg8d. ZJJJ ",
" JJGCA d,  Jc  ;8 J%  o,<>;>;>;>>;>;;;wzwd  ZZJJJ ",
" JJJAZ ,,; Jc ;l, JJG ,yk>>;yb6>;>;>;;xd,  JSZJJJ ",
" JJJGZ ,,l    ;,, JJS   >6;;;,,;>;>;>;,l  JSZZJJJ ",
" JJJJS 6,,;;;;>>>  JAAA d>>>  ,;;,,;,,;   JSAZJJJ ",
" JJJJG ,,d;;;>8,;;  JZA s>w   ,;     ,;;,  JJJJJJ ",
" JJJJJ ,,d;;;;,,;;> ZZZ ;;, D ;; &&&  ;,,; JJJJJJ ",
" JJJJJ ,7;;;>;;;,,> AZZ ;,, D ;;  DJJ  ,;; JJJJJJ ",
" JJJJJ  ,,,l;>;>;>; JJJ ;;, F ;;,    J ,,, JJJJJJ ",
" JJJJJJ   ,=>;>;;ll     ;;, J ,,,,;; J ,;,   JJJJ ",
" JJJJJJJ%  ,,,>,;;;;,,,,;,8 J   ;,,; J  ;p,8 JJJJ ",
" JJJJJJJJJ     ;z;;;;;8;d8  JJD   ;; JJ  8l, JJJJ ",
" JJJJJJJJJJJJJ   ,,,,,,,,  JJJDD  ,, JJJ ,,, JJJJ ",
" JJJJJJJJJJJJJJJ          JJJDDD ;,, JJJ  8, JJJJ ",
" JJJJJJJSMCJJJJJJJJGZZZZFJJJJDFF ,,v JJJS    JJJJ ",
" JJJJJJJNMMVJJJJJJJJAZZZJJJJJDJJ  v  JJ%AZ  ZFJJJ ",
" JJJJJJJmnnnJJJJJJJJGZZZJJJJJJJJJ   JJJ $ZZZZZJJJ ",
" JJJJJGZCmmVJJJJJJJJJDZZJJJJJJJJJJJJJJJ ZZZZZGJJJ ",
" JJJJJAZZZZFJJJJJJJJJGSFJJJJJJJJJJJJJJ#OZZFJJJJJJ ",
" JJJJJAZZZFJJJJJJJJJJJJJJJJJJJJJJJJJJJ+GSFJJJJJJJ ",
" JJJJJGSFJJJJJJJJJJJJJJJJJJJJJJJJJJJJJJJJJJJJJJJJ ",
"                                                  "
};
