/* XPM */
static char *_d6546de1ca547a69a5fdb1fbde550653mP4hUV8UE4fbHCi[] = {
/* columns rows colors chars-per-pixel */
"50 50 78 1 ",
"  c black",
". c #040403",
"X c #0F0202",
"o c #0F0404",
"O c #0F0E0B",
"+ c #1E1D16",
"@ c #3B0709",
"# c #2D2B21",
"$ c #3C392C",
"% c #5A5642",
"& c gray50",
"* c #C1171D",
"= c #C71C21",
"- c #EB1F27",
"; c #EC1C24",
": c #ED1C24",
"> c #ED1C25",
", c #EE1C24",
"< c #ED1E26",
"1 c #D92F35",
"2 c #D2353B",
"3 c #ED2126",
"4 c #E6222A",
"5 c #ED2128",
"6 c #ED2229",
"7 c #EC272A",
"8 c #ED282C",
"9 c #ED282D",
"0 c #EE2A2D",
"q c #E52F36",
"w c #EE2F31",
"e c #EE2F32",
"r c #EC3431",
"t c #EC3534",
"y c #ED3636",
"u c #ED3933",
"i c #EC3F36",
"p c #ED3C3B",
"a c #ED4037",
"s c #ED413A",
"d c #EE413C",
"f c #EE423E",
"g c #EC4B3D",
"h c #E63C42",
"j c #C44247",
"k c #ED4C42",
"l c #ED4C43",
"z c #EE4E47",
"x c #EE6859",
"c c #EE6E5D",
"v c #49BB5F",
"b c #EE866E",
"n c #EE997C",
"m c #B2B2B2",
"M c #B6B6B6",
"N c #E7D687",
"B c #E7D689",
"V c #E7D789",
"C c #E7D78B",
"Z c #E8D78A",
"A c #E8D88C",
"S c #E9DA91",
"D c #E8D992",
"F c #EADC98",
"G c #EBDD9C",
"H c #EBDD9D",
"J c #ECDE9F",
"K c #ECDFA0",
"L c #ECDEA1",
"P c #ECDFA1",
"I c #ECE0A3",
"U c #EDE0A5",
"Y c #EEE2AA",
"T c #EFE4B0",
"R c #FBFBFB",
"E c #FEFDFA",
"W c #FFFBFC",
"Q c #FEFEFE",
/* pixels */
"                                                  ",
" TTTTTTTTTTTTTTTTTTTTTTTTTTTTTTTTTTTTTTTTTTTTTTTT ",
" TTTTTTTTTTTTTTTTTTTTTTTTTTTTTTTTTTTTTTTTTTTTTTTT ",
" TTTTTT       TTFNJTTTTTTTTTTTTTTTTTTTTTTTTTTTTTT ",
" TTTTT  z::8t TTNNZTTTTTTTYJJFJFJYTTTTTTTTYUKUTTT ",
" TTTTT z::*k,  TNT           JUFHTTTT      KHJTTT ",
" TTTTT   ::,,t  TT 8::::::::  TIITTTT 8:::  HFTTT ",
" TTTTTTT  :,x,8    ,::::5::8s  TT     :z:8  HHPTT ",
" TTTTTTYT  3:::h:i7::::zd:8d8h    ::::p8:  JHJKUT ",
" TTTTUHHYT  xk,z:7i3ir7:5zd8z5:  ::::::   JKFFHHT ",
" TTT     TT  ::z::7ur::7:8z:txdz :::::  TTTTYKUYT ",
" TT  :8H   T   8d::7::s:::w:,0c,:::    TTTTTTYTTT ",
" TT :t::::  TT :83d:::8d::::,,,,::  TTTTTTTTTTTTT ",
" TT ss:kd8k TT d5:w::::t::e:,,,,:  T        TTTTT ",
" TU 88::8:z  T t:::,:<8:::8::::,: TT :::::b  TTTT ",
" TH     ::td   :::,,::d:::::::::: TS ::::::b TTTT ",
" TYIJFJ :z:81:::::::::4:::::::::: T  ::  ::  %TTT ",
" TTTYYJ :::::2:::::::::::::::::::   :::     #OTTT ",
" TTTTTT  ::::2:::::::::,:::5::::::::::  SSS#OTTTT ",
" TTTTTTT    ::<:::h:::::::::::5::::::: SSSS TTTTT ",
" TTTTTTTTTS   ::::q:::,:::;;::n:       TTSS TTTTT ",
" TTTTTTTTTSSS ::4::4::1,:3;;::y:  SSFTTTTTT+TTTTT ",
" TTTTTTTTT    j:2::::::8:k:::::::       TTTTTTTTT ",
" TTTTTT    :::::::,:::::::z::::::8::::8  TTTTTTTT ",
" TTTTTT 7::,,::wk:::::::::,,,::8:::::::8  TTTTTTT ",
" TTTTT  :tz:::::k8::::::::,:,:z:dd:::::d: PTTTTTT ",
" TTTTT :::      5::dd:::::::z,r       ::: FJJJUTT ",
" TTTTT ::: TTTv  ,X  o::::X  o: &&&&& :8: JFJFJTT ",
" TTTTT+::: TTvvv   W@      @Q   &&&&& ::: KFJJYTT ",
" TTTTT ::: TvvvvvZ QE TTTT#RQ MMMM&&& ::: KKYTTTT ",
" TTTTT :::      vB#  #TTTI. $%mmm     ::: PTTTTTT ",
" TTTTS d:w:::::  ATTTTTTTI&&&&&&  :::z::: TTTTTTT ",
" TTTSS 88,::::g:   TTTTTTTm      ::::z::: TTTTTTT ",
" TTTST :z,::::zd::    TTTT  88:::::::::x  TTTTTTT ",
" TTTTT :::::::zz:::z: TTTT 8::z::::::::: TTTTTTTT ",
" TTTTT :,t8::8tz::::  TTTT    :::8:::::  TTTTTTTT ",
" TTTTT :::::;:       TTTTTTTT   ::::::: TTTTTTTTT ",
" TTTTT :::::;;  HKHFUTTTTTTTTTT ::::::: TTTTTTTTT ",
" TTTTY :dk::::: HFHHHTTTTTTTTTT ::::z=: TTYFNFYTT ",
" TTTFZ t>6::s::   HHHTTTTTTTT   ::::::  TTFNNBHUT ",
" TTFBB  z98:::7::     TTTT    :z:dd::  TTTBBBVHHT ",
" FNNBBA  >k:::,::::z: TTTT 8:::::::8: %TTTPABFHFU ",
" NNNNZPT   :::,,::::d TTTT :zd::8:::  TTTTTTYHHFK ",
" NNBAKTTTK            TTTT           TT%TTTTTYKIY ",
" ZNBTTTTYHJFJJFJKYTTTTTKHTHFFJHFIYTTTTT $TTTTTTTT ",
" KSUTTTTTYHJFJFJYTTTTTTHHHHJHHJYTTTTTTT TTTTTTTTT ",
" TTTTTTTTTYJKKYYTTTTTTTYKFFJHYTTTTTTTT#OTTTTTTTTT ",
" TTTTTTTTTTTTTTTTTTTTTTTTYJJYTTTTTTTTT+TTTTTTTTTT ",
" TTTTTTTTTTTTTTTTTTTTTTTTTTTTTTTTTTTTTTTTTTTTTTTT ",
"                                                  "
};
