/* XPM */
static char *_0bbccbbadc2459db1f8176c157cb42a27VWkQLMxmQCQGdH[] = {
/* columns rows colors chars-per-pixel */
"50 50 72 1 ",
"  c black",
". c #0F0202",
"X c #0F0404",
"o c #0F0E0B",
"O c #1E1D16",
"+ c #3B0709",
"@ c #2D2B21",
"# c #3C392C",
"$ c #5A5642",
"% c gray50",
"& c #C1171D",
"* c #C71C21",
"= c #EC1C24",
"- c #ED1C24",
"; c #ED1C25",
": c #EC1D25",
"> c #EE1C24",
", c #EE1D24",
"< c #D92F35",
"1 c #D2353B",
"2 c #ED2126",
"3 c #E6222A",
"4 c #E6232A",
"5 c #EC272A",
"6 c #EE262A",
"7 c #ED282B",
"8 c #ED282D",
"9 c #E52F36",
"0 c #EE2F31",
"q c #EC3431",
"w c #EC3534",
"e c #ED3636",
"r c #ED3933",
"t c #EC3F36",
"y c #ED3C3B",
"u c #ED4037",
"i c #EE413C",
"p c #EE423E",
"a c #EC4B3D",
"s c #E63C42",
"d c #C44247",
"f c #ED4C42",
"g c #EE4E47",
"h c #EE6859",
"j c #EE6E5D",
"k c #22B14C",
"l c #2FB452",
"z c #49BB5F",
"x c #56BE65",
"c c #EE866E",
"v c #EE997C",
"b c #E7D687",
"n c #E7D688",
"m c #E7D789",
"M c #E8D78A",
"N c #E8D78B",
"B c #E8D88C",
"V c #E9DA91",
"C c #EADB96",
"Z c #EBDD9C",
"A c #EBDD9D",
"S c #ECDE9F",
"D c #ECDFA0",
"F c #ECDFA1",
"G c #EDE0A4",
"H c #EDE0A5",
"J c #EDE1A9",
"K c #EEE2AA",
"L c #EFE4B0",
"P c #FBFBFB",
"I c #FEFDFA",
"U c #FEFEFC",
/* pixels */
"                                                  ",
" LLLLLLLLLLLLLLLLLLLLLLLLLLLLLLLLLLLLLLLLLLLLLLLL ",
" LLLLLLLLLLLLLLLLLLLLJSSJLLLLLLLLLLLLJLJLLLLLLLLL ",
" LLLLLLLLLLLLLLLLLLLGSZZSSJLLLLLLLLGFSGJLLLLLLLLL ",
" LLLLLLLLLLLLLLLLLFSSSZZZZSLLLLLLJFZZZAAJLLLLLGVF ",
" LLJLLLLLLLLLLLLJSSSZZZSJSGLLLLLJASSZZZAFLLLLLnbn ",
" JSSJLLLLLLLL           LLLL            SLLLGMnbn ",
" GAAALLLLLLL  >>:6:;ig: LLLL p;:>;:>;::   LGMMbbn ",
" JSSCmBGKLL$ :6>>;>;;:8 LLLL :g;:;>>>>=f:  NbbbbA ",
" LZZmbnnLLL  ;;pp>g:    LLLL     :>6>=:66g  bbSLJ ",
" LGZbbnSLL  >=>=>>   LLLLLLLKZSZ   ;=i>=8;0 bCLLL ",
" LKGVbCLLL :*g=>>> LLLLLLLLLLSZZSS :>==>pp: LKLLL ",
" LLLLLLLLL :;;>==> LLLLLLLLLLGSASA  >>>>;>> LLLLL ",
" LLLLLLLLL ;;;=>>=   LLLLLLLL       >>>;;;: LLLLL ",
" LLLLLLLL  ;>>>=8;:;    LLLL  :;;>gw8>;8q;; LLLLL ",
" LLLLLLLL ::>>>>;>>g;:8 LLLL ;g;;=gg>=;;:;: LLLLL ",
" LLLLLLL  h>=>>>>:;>88 @#LLL    :;tf>;>>>g; L$LLL ",
" LLLLLLL >=>g=>>>     @oLLLLLLL   :a;;;>>68 @oLLL ",
" LLLLLLL :>>g>:;  LLLLo@LLLLLLLLM  :;:>:q>p@oLLLL ",
" LLLLLJJ ;;:     LLL$# o#LLL@  @bb      >;: LLLLL ",
" LLLJJGZ ;>> LSZLAFJ UP@LLLL IU bbbbLLL ==; LLLLL ",
" LLJSZSA :>> LAZZA   U+      +U   bbLLL =>:OLLLLL ",
" LLGZZZA =6: LASZA :X  .:;>>.  .;  SLLL >=> LLLLL ",
" LLGZZZA >>:       w:g:;>>>;:pp::6      =>= LLLLL ",
" LLLLLLJ :p>>>>>ip=p2=>=>>=>=;>=8g>>>>>gw>  LLLLL ",
" LLLLLLL  8>>=>;=>8>;>=>=>>=>==>>pq>>>;::6 LLLLLL ",
" LLLLLLLL  8=:;:8>>=;;=p>;;>>=>=>:==>:;    LLLLLL ",
" LLLLLLLLL       ==>=>>=p=6;=>=>=1=d    LLLLLLLLL ",
" LLLLLLLLLLLLzlk  :w>>>>6>=<>=3=>3== %%LLLLLLLLLL ",
" LLLLLxkzLL       :v>>>=:=>==>:9>>==   %LLLLLLLLL ",
" LLLLLLklkz :;=>>>;6;>>=>====>>s>>;;:>    LLLLLLL ",
" LLLLLLkkk  >>>>>>;;>:2>=>==>=>>>>;;1;;>:  LLLLLL ",
" LLLLL     :;:   :;>>>>=>=>=>>>>==>=1;;>;> GGJLLL ",
" LLLL  ::  >>  L ;>>>==>=>>3>;>>>2>;:<8;p> SAAGJL ",
" LLLL c:;>>>: lL :>>=>==>;=p>>==;;=   pw>:     SL ",
" LLLL  c;>>>; LL >>>>=>8==>8:===;:w L  g>6:;88 GL ",
" LLLLL        L  :>>:>>q>=q::;=8>2p LL p8if:pi JL ",
" LLLLLLLLLLLLL  ;;;>>>>>=>u7>>=p28: LL  >;;2q; LL ",
" LLLLLLLLLL    :>;:j8>>82==u>>6:;p8   L   S8:  LL ",
" LJGSGLLLL  :>>;: gphq>g8>6=>qr6>>g>:  LL     LLL ",
" LSZZZSF   :;>>=:  :8f8pg2>5qt2u6>g;ph  LGSZFLLLL ",
" JFSZZS  :8y>>=>    s6p8=pg=:>:7t;p:;:2  LLLKLLLL ",
" LLJZZ  8>g>     LK  i8>===>>>:    8;h;;  LLLLLLL ",
" LLJZZ  :>>8 LLLKGGJ  >>>;>>>>8 LL  w;;;:   LLLLL ",
" LLLFZZ      LLLLSAGA           LbL  ;f&;:g LLLLL ",
" LLLGSFLLLLLLLLLKGAAAAFLJLLLLLLMbbLL w6;;g  LLLLL ",
" LLLLLLLLLLLLLLLLLLLJLLLLLLLLLLGbSLL       LLLLLL ",
" LLLLLLLLLLLLLLLLLLLLLLLLLLLLLLLJLLLLL LLLLLLLLLL ",
" LLLLLLLLLLLLLLLLLLLLLLLLLLLLLLLLLLLLLLLLLLLLLLLL ",
"                                                  "
};
