/* XPM */
static char *_632985c0f4d495084e5e56059313ecauPIppdRpqnd9xYpb[] = {
/* columns rows colors chars-per-pixel */
"50 50 6 1 ",
"  c black",
". c #694500",
"X c red",
"o c #FDD39A",
"O c #F6D8AF",
"+ c #F8DFBD",
/* pixels */
"                                                  ",
" ++++++++++++++++++++++++++++++++++++++++++++++++ ",
" ++++++++++++++++++++++++++++++++++++++++++++++++ ",
" ++++++++++++++++++++++++++++++++++++++++++++++++ ",
" ++++++++  +++++++++++++++++++++++++++++  +++++++ ",
" +++++++ .. +++++++++++++++++++++++++++ .. ++++++ ",
" ++++++++..+++++++++++++++++++++++++++++..+++++++ ",
" ++++++++..+++++++++++++++++++++++++++++..+++++++ ",
" ++++++++..+++++++++++++++++++++++++++++..+++++++ ",
" ++++++++..+++++++++++++++++++++++++++++..+++++++ ",
" ++++++++..++++++++++++++O++++++++++++++..+++++++ ",
" ++++++++..+++++++++++++++++++++++++++++..+++++++ ",
" ++++++++..+++++++++++++++++++++++++++++..+++++++ ",
" ++++++++..++++++++++++++++++++X++++++++..+++++++ ",
" ++++++++..+++++++++++++++++++XX++++o+++..+++++++ ",
" ++++++++..+++++++++o++++++++XXX+++o++++..+++++++ ",
" ++++++++..++++++++++o++++++XXX++++o++++..+++++++ ",
" ++++++++..+XXXXXXXX++o+++++XX++++X+++++..+++++++ ",
" ++++++++..+XXXXXXXXXXo++++XX++++oXX++++..+++++++ ",
" ++++++++..+XXXXXXXXXXXXXXXXX+++oXXX++++..+++++++ ",
" ++++++++..+XXX+XXXXXXXXXXXX++++XXX+++++..+++++++ ",
" ++++++++..+XX++XXX+XXXXXXXXXXXXXX++++++..+++++++ ",
" ++++++++..+XX++XX+  XXXXXXXXXX+++++++++..+++++++ ",
" ++++++++++++++++++  XXXXXXXXXX++++++++o+++++++++ ",
" +++++   +++++++++++XXXXXXXXXXXX++++++o+++   ++++ ",
" ++++ ... +++++++++  XXXXXXXXXXX+++++++++ ... +++ ",
" ++++ ... ++XX+++++  XXXXXXXXXXX+++++++++ ... +++ ",
" +++++...+++XXX+XXX++XXXXXXXXXXX++++++++++...++++ ",
" +++++...+++XXXXXXX+++XXXXXXXXXX++++++++++...++++ ",
" +++++...+++XXXXXXXX++XXXXXXXXXXX+++++++++...++++ ",
" +++++...++++XXXXXXXXXXXoXXXXX++XX++++++++...++++ ",
" +++++...+++++XXXXXXXXXo+++++X++XXX+++++++...++++ ",
" +++++...++++++XXXXXXXo+++++XXXX+oXXX+++++...++++ ",
" +++++...+++++++++++++o+++++XXXX++oXXX++++...++++ ",
" +++++...++++++++++++o++++++++XXX++o++++++...++++ ",
" +++++...+++++++++++o++++++++++XX++o++++++...++++ ",
" +++++...+++++++++++++++++++++++X+++o+++++...++++ ",
" +++++...+++++++++++++++++++++++X++++o++++...++++ ",
" +++++...+++++++++++++++++++++++++++++++++...++++ ",
" +++++...+++++++++++++++++++++++++++++++++...++++ ",
" +++++...+++++++++++++++++++++++++++++++++...++++ ",
" +++++...+++++++++++++++++++++++++++++++++...++++ ",
" +++++...+++++++++++++++++++++++++++++++++...++++ ",
" +++++...++++++++++++++++++++++++++++o++++...++++ ",
" +++++...++oo+++++++++++++++++++++++++oo++...++++ ",
" +++++...+o+++++++++++++++++++++++++++++o+...++++ ",
" +++++...o+++++++++++++++++++++++++++++++o...++++ ",
" ++++++++++++++++++++++++++++++++++++++++++++++++ ",
" ++++++++++++++++++++++++++++++++++++++++++++++++ ",
"                                                  "
};
