/* XPM */
static char *_5edd14799214518f2e47d5e2abbc8fbEBF1esBVp3IZvg4z[] = {
/* columns rows colors chars-per-pixel */
"50 50 35 1 ",
"  c black",
". c #0F0E0B",
"X c #1E1D16",
"o c #1B1B1B",
"O c #2D2B21",
"+ c #3C392C",
"@ c #5A5642",
"# c gray50",
"$ c #E21011",
"% c #ED1C24",
"& c #A349A4",
"* c #BB68BB",
"= c #E7D687",
"- c #E7D78B",
"; c #E8D78B",
": c #E8D88C",
"> c #E9DA91",
", c #EADA94",
"< c #EADB96",
"1 c #EADC98",
"2 c #EBDD9C",
"3 c #EBDD9D",
"4 c #ECDFA0",
"5 c #ECDEA1",
"6 c #ECE0A3",
"7 c #EDE0A4",
"8 c #EDE1A6",
"9 c #EDE1A9",
"0 c #EEE2AA",
"q c #EFE4AF",
"w c #EFE4B0",
"e c #E9E9E9",
"r c #F2F1ED",
"t c #F1F1F1",
"y c white",
/* pixels */
"                                                  ",
" wwwwwwwwwwwwwwwwwwwwwwwwwwwwwwwwwwwwwwwwwwwwwwww ",
" wwwwwwwwww       wwwwwww9539wwwwwwwwwwwwwwwwwwww ",
" wwwwwwww  $$$$$$$  www9513339wwwwwwwwwwwwwwwwwww ",
" 5>7www  $$$$$$$$$$$  w322233367wwwwwwwwwwwwwwwww ",
" -=-ww $$$$$$$$$$$$$$$ 72223333330wwwwwwwwwwwwwqw ",
" ===: $$$$$$$$$$$$$$$$$ qq73233235wwwwwwwwwww9739 ",
" === $$$$$$$$$$$$$$$$$$ wwwqq62237wwwww00wwww3323 ",
" 1= $$$$$$$$$$$$$$$$$$$$ wwwwwwwwwwwww00qq6=:<337 ",
" w $$$$$$$$$$$$$$$$$$$$$$ wwwwwwwwwww90wqw:==:13w ",
" w $$$$$$$$$$$$$$$$$$$$$$ 7wwwwwwwww90wwww3===47w ",
" w $$$$$$$$$$$$$$$$$$$$$$$ 7<wwwwwww00wwwww<=>7ww ",
" w $$$  $$$$$$$$$$$$$$$$$$ o<qwwwwwww9wwwwwwwwwww ",
" w  $ ww o                 o,qwwwwwwwwwwwwwwwwwww ",
" ww $ wwoteerrrrrrrrrrrrrrrtX,wwwwwwwwwwwwwwwwwww ",
" www wwwoteerrrrrrrrrrrrrrrtX<wwwwwwwwwwwwwwwwwww ",
" ww  >ww                     ,wwwwwwwwwwwwwww@www ",
" w rr >w &&    &&&&&&    &&& ,wwwww wwwwwwwwO.www ",
" w rr >w &&&&   &&&&   &&&&&  wwqw % wwwwwwO.wwww ",
" ww  >ww &&&&&& &&&& &&&&&&&& ww03w wwwwwww wwwww ",
" wwwwwww &&&yy&&&&&&&&yy&&&&& 9332q wwww    0wwww ",
" wwwwww  &&y&&y&&&&&&y&&y&&&& 3333q      ##X   ww ",
" wwwwww &&&y& y&&&&&&y& y&&&  333w  ########### w ",
" wwwwww &&&y& y&&&&&&y& y&&& 73qww ####       # w ",
" wwwwww &&&&yy&&&&&&&&yy&&&& wwwww ##   147www ww ",
" wwwwww   &&&&&&&&&&&&&&&&&  wwwww ## wwwwwwwwwww ",
" wwwwwwww &&&&&&&&&&&&&&&&&  ##### #  wwwwwwwwwww ",
" wwwwwwww &&&&&&&    &&&&&& ###      #wwwwwwwwwww ",
" ww    w  &&&&&&      &&&&& ##  &&&& ##wwwwwwwwww ",
" ww &&   &&&&&&  &&&&  &&&&    &&*&& ###w000wwwww ",
" ww &&&&&**&&&& &&&&&& &&**  &&**&&  ###000wwwwww ",
" ww &*********&&&&&&&&*****&&****&  ####000wwwwww ",
" ww &***************************&& ####0000wwwwww ",
" w9 &&&*************************&  ###00000wwwwww ",
" w3   &&&**********************&  ###00000wwwwwww ",
" w733   &&********************&& www000000wwwwwww ",
" ww31 *&&&&&&&&&&&&&&&&&&&&&&&& wwww9000wwwwwwwww ",
" ww63 &&&&&&&&&&   &&&&&&&&&&&  wwwwwwwwwwwwwwwww ",
" wwq3 &&&&& &&&    &&&&  &&&&&  wwwwwwwwwwwwwwwww ",
" www7 &&&   &&&   &&&&    &&&&  wwwwwwwwwwww9350w ",
" wwww &&& w &&&&  &&&  ww  &&&& wwwwwwwww9422223w ",
" wwww  && w &&&&  &&   www &&&& wwwwwwww93222237w ",
" wwwww    w &&&&  &&   www  &&& wwwwwwww3332337ww ",
" wwwwwwwww9  &&&& &&  wwww3 &&& 7wwwwww@733233www ",
" wwwwwwwqq9w  &&& &&&  www3 &&  4qwwwww +w7324qqw ",
" wwwwwwwq99qw     &&&& wwww && 31qwwwww www727wqw ",
" wwwwwwwwwq9wwww3  &&  wwww    wwwwwwwO.wwwwwwwww ",
" wwwwwwwwww9wwwwww    wwwww  wwwwwwwwwXwwwwwwwwww ",
" wwwwwwwwww9wwwwwwwwwwwwwwwwwwwwwwwwwwwwwwwwwwwww ",
"                                                  "
};
