/* XPM */
static char *e56135ac82f0491ead87fa550bd0ab64hbHkkfs4GW3kdq2I[] = {
/* columns rows colors chars-per-pixel */
"50 50 38 1 ",
"  c black",
". c #0F0E0B",
"X c #1E1D16",
"o c #1B1B1B",
"O c #2D2B21",
"+ c #3C392C",
"@ c #5A5642",
"# c gray50",
"$ c #E21011",
"% c #ED1C24",
"& c #22B14C",
"* c #2FB452",
"= c #3CB859",
"- c #49BB5F",
"; c #56BE65",
": c #6FC572",
"> c #A349A4",
", c #BB68BB",
"< c #E7D687",
"1 c #E7D789",
"2 c #E8D88C",
"3 c #E8D992",
"4 c #EADA94",
"5 c #EADB96",
"6 c #EBDD9C",
"7 c #EBDD9D",
"8 c #ECDE9F",
"9 c #ECDFA0",
"0 c #ECDEA1",
"q c #ECE0A3",
"w c #EDE1A6",
"e c #EDE1A9",
"r c #EFE4AF",
"t c #EFE4B0",
"y c #E9E9E9",
"u c #F2F1ED",
"i c #F1F1F1",
"p c white",
/* pixels */
"                                                  ",
" tttttttttttttttttttttttttttttttttttttttttttttttt ",
" tttttttttttttttttttre88errttttt       tttttttrrt ",
" ttttttttttttttttttte76688ettt  $$$$$$$  ttttrrrt ",
" ttrttttttttttttttw86666678t  $$$$$$$$$$$  tttw59 ",
" ttrtttttttttttte8666667699 $$$$$$$$$$$$$$$ tt1<1 ",
" e88etttttttttttq666687wrr $$$$$$$$$$$$$$$$$ 2<<1 ",
" 9777tttttttttttw8669rrttt $$$$$$$$$$$$$$$$$$ <<< ",
" w875128ttt@ttttttttttttt $$$$$$$$$$$$$$$$$$$$ <7 ",
" t661<11ttt.Ottttttttttt $$$$$$$$$$$$$$$$$$$$$$ r ",
" rw6<<<7tttt tttttttttr9 $$$$$$$$$$$$$$$$$$$$$$ t ",
" rrw3<5tttttXtttttttt5w $$$$$$$$$$$$$$$$$$$$$$$ t ",
" tttttttttttttttttttr5o $$$$$$$$$$$$$$$$$$  $$$ t ",
" tttttttttttttttttttr3o                 o tt $  t ",
" ttttttttttttttttttt5Xiuuuuuuuuuuuuuuuyyiott $ tt ",
" ttttttttttttttttttt5Xiuuuuuuuuuuuuuuuyyiottt ttt ",
" ttttttttttttttttttt5                     tt5@ tt ",
" ttttttttttttt ttttt5 >>>    >>>>>>    >> r5Oyu t ",
" tttttttttttt % tttt  >>>>>   >>>>   >>>> rO.uu t ",
" ttttttttttttt t9ett >>>>>>>> >>>> >>>>>> t t  tt ",
" tttte    tttt t8880 >>>>>pp>>>>>>>>pp>>> t ttttt ",
" tt    ##      t6666 >>>>p>>p>>>>>>p>>p>>  Xttttt ",
" t ###########  r666  >>>p >p>>>>>>p >p>>> tttttt ",
" t #       #### rrr6e >>>p >p>>>>>>p >p>>> tttttt ",
" tt tttw77   ## ttttt >>>>pp>>>>>>>>pp>>>> tttttt ",
" ttttttttttt ## ttttt  >>>>>>>>>>>>>>>>>   tttttt ",
" ttttttttttt  # ttttt  >>>>>>>>>>>>>>>>> tttttttt ",
" tttttttttttt      ttt >>>>>>    >>>>>>> tttttttt ",
" tttttttttttt >>>>  tt >>>>>      >>>>>>  t    tt ",
" ttttt;&-tttt >>,>>    >>>>  >>>>  >>>>>>   >> tt ",
" tttttt&*&-t-  >>,,>>  ,,>> >>>>>> >>>>,,>>>>> tt ",
" tttttt&&&*-&&  >,,,,>>,,,,,>>>>>>>>,,,,,,,,,> tt ",
" tttttt*-&&&&&- >>,,,,,,,,,,,,,,,,,,,,,,,,,,,> tt ",
" ttttttt&&&**&&  >,,,,,,,,,,,,,,,,,,,,,,,,,>>> et ",
" ttttttt*-&&&-*t  >,,,,,,,,,,,,,,,,,,,,,,>>>   7t ",
" tttttttt=:&&&ttt >>,,,,,,,,,,,,,,,,,,,,>>   67wt ",
" ttttttttt*&&*tttt >>>>>>>>>>>>>>>>>>>>>>>>, 76rt ",
" ttttttttttttttttt  >>>>>>>>>>>   >>>>>>>>>> 7qrt ",
" ttttttttttttttttt  >>>>>  >>>>    >>> >>>>> 7rtt ",
" te99etttttttttttt  >>>>    >>>>   >>>   >>> wttt ",
" r876668ettttttttt >>>>  tt  >>>  >>>> t >>> tttt ",
" rw766668etttttttt >>>> ttt   >>  >>>> t >>  tttt ",
" trw666678tttttttt >>>  ttt   >>  >>>> t    ttttt ",
" trr667869ttttttt9 >>> 7tttt  >> >>>>  @ttttttttt ",
" ttt766wttttttttt7  >> 7ttt  >>> >>>  t +tttttttt ",
" tttw89tttttttttt77 >> tttt >>>>     tt ttttttttt ",
" tttttttttttttttttt    tttt  >>  7ttttO.ttttttttt ",
" tttttttttttttttttttt  ttttt    rtttttXtttttttttt ",
" tttttttttttttttttttttttttttttttttttttttttttttttt ",
"                                                  "
};
