/* XPM */
static char *result[] = {
/* columns rows colors chars-per-pixel */
"50 50 48 1 ",
"  c black",
". c #0F0E0B",
"X c #1E1D16",
"o c #2D2B21",
"O c #3C392C",
"+ c #5A5642",
"@ c gray50",
"# c #22B14C",
"$ c #2FB452",
"% c #3CB859",
"& c #49BB5F",
"* c #56BE65",
"= c #6FC572",
"- c #B2B2B2",
"; c #B6B6B6",
": c gray75",
"> c #E7D687",
", c #E7D688",
"< c #E7D689",
"1 c #E7D789",
"2 c #E7D78A",
"3 c #E7D78B",
"4 c #E8D78A",
"5 c #E8D78B",
"6 c #E8D88C",
"7 c #E9D990",
"8 c #E9DA91",
"9 c #E8D992",
"0 c #EADA94",
"q c #EADB96",
"w c #EADC98",
"e c #EBDD9C",
"r c #EBDD9D",
"t c #EBDD9E",
"y c #ECDE9F",
"u c #ECDFA0",
"i c #ECDEA1",
"p c #ECDFA1",
"a c #ECE0A3",
"s c #EDE0A4",
"d c #EDE0A5",
"f c #EDE1A6",
"g c #EDE1A7",
"h c #EDE1A9",
"j c #EEE2AA",
"k c #EFE4AF",
"l c #EFE4B0",
"z c #C3C3C3",
/* pixels */
"                                                  ",
" llllllllllllllllllllllllllllllllllllllllllllllll ",
" lllllllllllllllllllljyyhllllllllllllllllllllllll ",
" llllllllllllllllllljreeeyhlllllllljyeyhlllllllll ",
" lllllllllllllllllhyeeeeeerlllllljyeeeerhllllls8i ",
" llllllllllllllljyeeeeeeeedllllljreeeeeerlllll3>< ",
" jyyhlllllllllllyeeeeeedllllllljrq220eeeellls6>>> ",
" yeerlllllllllllfeeedllllllllljre2>>,eeeells4>>>> ",
" feeq56illl+lllllllllllllllllltee9>>7eeedll3>>>>w ",
" lre1>><lll.olllllllllllllllljeeeeeeeeedlll<>>wll ",
" lfe,>>wllll llllllllllllllllteeeeeeeedlllle>wlll ",
" llf9>wlllllXllllllllllllllllreeeeeeedlllllllllll ",
" llllllllllllllllllllllllllllfeeeeedlllllllllllll ",
" llllllllllllllllllllllllllllllllllllllllllllllll ",
" llllllllllllllllllllllllllllllllllllllllllllllll ",
" llllllllllllllllllllllllllllllllllllllllllllllll ",
" lllllllllllllllllllllloOllllllls66illlllllll+lll ",
" lllllllljphllllllllllo.llllllll6>><llllllllo.lll ",
" llllllljrerllllllllll.ollllllll3>>>lllllllo.llll ",
" llllllhreeelljyyglllll.Olllllll>>>>lllllll lllll ",
" lllljyeeeeellteeeyhllllllllllll>>>>lllllll lllll ",
" lljyeeeeeeelleeeeerhlllllllllll>>>>lllllllXlllll ",
" llyeeeeeeedlleeeeeerlllllllllll<>>wlllllllllllll ",
" llfeeeeeeelllreefeedllllllllllle>wllllllllllllll ",
" llllllfeedlllfedllllllllllllllllllllllllllllllll ",
" llllllllllllllllllllllllllllllllllllllllllllllll ",
" llllllllllllllllllllllllllll@@@@@@@lllllllllllll ",
" lllllllllllll&#&llllllllll@@@@@@@@@@@lllllllllll ",
" llllllllllll&$##lllllllll@@@@@@@@@@@@@llllllllll ",
" lllll*#&llll##&$llllllll@@@@@@-z;@@@@@@lllllllll ",
" llllll#$#&l&$##lllllllll@@@@@-zz:@@@@@@lllllllll ",
" llllll###$&####lllllllll@@@@@@@-z-@@@@@lllllllll ",
" llllll$&#####&$llllllllll@@@@@@@@@@@@@llljphllll ",
" lllllll###$$##llllllllllll@@@@@@@@@@@llljreeeyhl ",
" lllllll$&###&$llllllllllllll@@@@@@@lllllteeeeerl ",
" llllllll%=###lllllllllllllllllllllllllllreeeeedl ",
" lllllllll$##$lllllllllllllllllllllllllllteeeeell ",
" lllllllllllllllllllllllls66ylllllllllllleeeeeall ",
" llllllllllllllllllllllll6>>>>>6illlllllleeeeekll ",
" ljyyhllllllllllllllllllle>>>>>><llllllllreeedlll ",
" lyeeeeyhllllllllllllllllle>>>>>>llllllllfeedllll ",
" lfeeeeerhlllllllllllllllllle>>>>illlllllllllllll ",
" llfeeeeerlllllllllllueullllll<>><lllllllllllllll ",
" llleeeeedllllllluulueeelllllle>>>lllll+lllllllll ",
" lllreedllllllllleeueeerlllllll>>>lllll Ollllllll ",
" lllfedllllllllllreeeerllllllll<>>lllll lllllllll ",
" lllllllllllllllllllllllllllllle>wllllo.lllllllll ",
" lllllllllllllllllllllllllllllllllllllXllllllllll ",
" llllllllllllllllllllllllllllllllllllllllllllllll ",
"                                                  "
};
