/* XPM */
static char *result[] = {
/* columns rows colors chars-per-pixel */
"50 50 59 1 ",
"  c black",
". c #040403",
"X c #080706",
"o c #0F0E0B",
"O c #1E1D16",
"+ c #2D2B21",
"@ c #3C392C",
"# c #5A5642",
"$ c gray50",
"% c #22B14C",
"& c #25B24D",
"* c #26B24E",
"= c #27B34F",
"- c #2FB452",
"; c #49BB5F",
": c #56BE65",
"> c #6FC572",
", c #B2B2B2",
"< c #B6B6B6",
"1 c gray75",
"2 c #C8DA9D",
"3 c #CBDB9E",
"4 c #E7D687",
"5 c #E7D688",
"6 c #E7D689",
"7 c #E7D789",
"8 c #E7D78A",
"9 c #E7D78B",
"0 c #E8D78A",
"q c #E8D78B",
"w c #E8D88C",
"e c #E9D990",
"r c #E9DA91",
"t c #E8D992",
"y c #EADA94",
"u c #EADB96",
"i c #EADC98",
"p c #EBDD9C",
"a c #EBDD9D",
"s c #EBDD9E",
"d c #ECDE9F",
"f c #ECDFA0",
"g c #ECDEA1",
"h c #ECDFA1",
"j c #E8DDAB",
"k c #ECE0A3",
"l c #EDE0A4",
"z c #EDE0A5",
"x c #EDE1A6",
"c c #EDE1A7",
"v c #EDE1A9",
"b c #EEE2AA",
"n c #EEE3AF",
"m c #EFE4AF",
"M c #EEE4B0",
"N c #EFE4B0",
"B c #EFE5B0",
"V c #EFE4B1",
"C c #C3C3C3",
/* pixels */
"                                                  ",
" NNNNNNNNNNNNNNNNNNNNNNNNNNNNNNNNNNNNNNNNNNNNNNNN ",
" NNNNNNNNNNNNNNNNNNNNbddvNNNNNNNNNNNNNNNNNNNNNNNN ",
" NNNNNNNNNNNNNNNNNNNbapppdvNNNNNNNNbdpdvNNNNNNNNN ",
" NNNNNNNNNNNNNNNNNvdppppppaNNNNNNbdppppavNNNNNlrg ",
" NNNNNNNNNNNNNNNbdppppppppzNNNNNbappppppaNNNNN946 ",
" bddvNNNNNNBBNNNdppppppzNNNNNNNbau88yppppNNNlw444 ",
" dppaNNNNNBNNVNNxpppzNNNNNNNNNbap8445ppppNNl04444 ",
" xppuqwgNNBNN#NNNNNNNNNNNNNNNNsppt44epppzNN94444i ",
" Nap7446NNBN+oNNNNNNNNNNNNNNNbpppppppppzNNN644iNN ",
" Nxp544iNNNN VNNNNNNNNNNNNNNNsppppppppzNNNNp4iNNN ",
" NNxt4iNNNNN.NNNNNNNNNNNNNNNNapppppppzNNNNNNNNNNN ",
" NNNNNNNNNNNNNNNNNNNNNNNNNNNNxpppppzNNNNNNNNNNNNN ",
" NNNNNNNNNNNNNNNNNNNNNNN#NNNNNNNNNNNNNNNNNNNNBNNN ",
" NNNNNNNNNNNNNNNNNNNNNNN NNNNNNNNNNNNNNNNNNNNNNNN ",
" NNNNNNNNNNNNNNNNNNNNNNNo+NNNNNNNNNNNNNNNNNNNNNNN ",
" NNNNNNNNNNNNNNNNNNNNNNBN NNNNNNlwwgNNNNNNNNNNNNN ",
" NNNNNNNNbhvNNNNNNNNNNjNN NNNNNNw446NNNNNNNNN++NN ",
" NNNNNNNbapaNNNNNNNNNNnN+oNNNNNN9444NNNNNNN+ oo+N ",
" NNNNNNvapppNNbddcNNNNNNXNNNNNNN4444NNNNNNN NNN N ",
" NNNNbdpppppNNspppdvNNNBNNNNNNNN4444NNNNNNN NNN N ",
" NNbdpppppppNNpppppavNNNNNNNNNNN4444NNNNNNN.NNNON ",
" NNdpppppppzNNppppppaNNNNNNNNNNN644iNNNNNNNNNNNNN ",
" NNxpppppppNNNappxppzNNNNNNNNNNNp4iNNNNNNNNNNNNNN ",
" NNNNNNxppzNNNxpzNNNNNNNNNNNNNNNNNNNNNNNNNNNNNNNN ",
" NNNNNNNNNNNNNNNNNNNNNNNNNNNNNNNNNNNNNNNNNNNNNNNN ",
" NNNNNNNNNNNNNNNNNNNNNNNNNNNN$$$$$$$NNNNNNNNNNNNN ",
" NNNNNNNNNNNNN;%;NNNNNNNNNN$$$$$$$$$$$NNNNNNNNNNN ",
" NNNNNNNNNNNN;-%%BNNNNNNNN$$$$$$$$$$$$$NNNNNNNNNN ",
" NNNNN:%;NNNN%%;3NNNNNNNN$$$$$$,C<$$$$$$NNNNNNNNN ",
" NNNNNN%-%;N;-%%NNNNNNNNN$$$$$,CC1$$$$$$NNNNNNNNN ",
" NNNNNN%%%-;%%%2NNNNNNNNN$$$$$$$,C,$$$$$NNNNNNNNN ",
" NNNNNN-;%%%%%;NNNNNNNNNNN$$$$$$$$$$$$$NNNbhvNNNN ",
" NNNNNN>%%%--%2NNNNNNNNNNNN$$$$$$$$$$$NNNbapppdvN ",
" NNNNNN-&;%%%;NNNNNNNNNNNNNNN$$$$$$$NNNNNspppppaN ",
" NNNNNNN-=>%%2NNNNNNNNNNNNNNNNNNNNNNNNNNNapppppzN ",
" NNNNNNNN-*%2NNNNNNNNNNNNNNNNNNNNNNNNNNNNspppppNN ",
" NNNNNNNNNNNNNNNNNNNNNNNNlwwdNNNNNNNNNNNNpppppkNN ",
" NNNNNNNNNNNNNNNNNNNNNNNNw44444wgNNNNNNNNpppppmNN ",
" NbddvNNNNNNNNNNNNNNNNNNNp4444446NNNNNNNNapppzNNN ",
" NdppppdvNNNNNNNNNNNNNNNNNp444444NNNNNNNNxppzNNNN ",
" NxpppppavNNNNNNNNNNNNNNNNNNp4444gNNNNNNNNNNNNNNN ",
" NNxpppppaNNNNNNNNNNNfpfNNNNNN6446NN+@NBNNNNNNNNN ",
" NNNpppppzNNNNNNNffNfpppNNNNNNp444N@ NNNNNNNNNNNN ",
" NNNappzNNNNNNNNNppfpppaNNNNNNN444NNo+NMNNNNNNNNN ",
" NNNxpzNNNNNNNNNNappppaNNNNNNNN644NNNo+nNNNNNNNNN ",
" NNNNNNNNNNNNNNNNNNNNNNNNNNNNNNp4iNNNN NNNNNNNNNN ",
" NNNNNNNNNNNNNNNNNNNNNNNNNNNNNNNNNNNNN.NNNNNNNNNN ",
" NNNNNNNNNNNNNNNNNNNNNNNNNNNNNNNNNNNNNNNNNNNNNNNN ",
"                                                  "
};
