/* XPM */
static char *result[] = {
/* columns rows colors chars-per-pixel */
"50 50 58 1 ",
"  c black",
". c #040403",
"X c #060504",
"o c #0F0E0B",
"O c #1B1A14",
"+ c #1E1D16",
"@ c #25231B",
"# c #2B291F",
"$ c #2C2A21",
"% c #2D2B21",
"& c #3C392C",
"* c #5A5642",
"= c gray50",
"- c #22B14C",
"; c #2FB452",
": c #3CB859",
"> c #49BB5F",
", c #56BE65",
"< c #6FC572",
"1 c #B2B2B2",
"2 c #B6B6B6",
"3 c gray75",
"4 c #E7D687",
"5 c #E7D688",
"6 c #E7D689",
"7 c #E7D789",
"8 c #E7D78A",
"9 c #E7D78B",
"0 c #E8D78A",
"q c #E8D78B",
"w c #E8D88C",
"e c #E9D990",
"r c #E9DA91",
"t c #E8D992",
"y c #EADA94",
"u c #EADB96",
"i c #EADC98",
"p c #EBDD9C",
"a c #EBDD9D",
"s c #EBDD9E",
"d c #ECDE9F",
"f c #ECDFA0",
"g c #ECDEA1",
"h c #ECDFA1",
"j c #ECE0A3",
"k c #EDE0A4",
"l c #EDE0A5",
"z c #EDE1A6",
"x c #EDE1A7",
"c c #EDE1A9",
"v c #EEE2AA",
"b c #ECE1AE",
"n c #EDE2AE",
"m c #EDE3AF",
"M c #EFE4AF",
"N c #EFE4B0",
"B c #EFE5B0",
"V c #C3C3C3",
/* pixels */
"                                                  ",
" NNNNNNNNNNNNNNNNNNNNNNNNNNNNNNNNNNNNNNNNNNNNNNNN ",
" NNNNNNNNNNNNNNNNNNNNvddcNNNNNNNNNNNNNNNNNNNNNNNN ",
" NNNNNNNNNNNNNNNNNNNvapppdcNNNNNNNNvdpdcNNNNNNNNN ",
" NNNNNNNNNNNNNNNNNcdppppppaNNNNNNvdppppacNNNNNkrg ",
" NNNNNNNNNNNNNNNvdpppppppplNNNNNvappppppaNNNNN946 ",
" vddcNNNNNNNNNNNdpppppplNNNNNNNvau88yppppNNNkw444 ",
" dppaNNNNNNNNNNNzppplNNNNNNNNNvap8445ppppNNk04444 ",
" zppuqwgNNNNBN*NNNNNNNNNNNNNNNsppt44eppplNN94444i ",
" Nap7446NNNNmN NNNNNNNNNNNNNNvppppppppplNNN644iNN ",
" Nzp544iNNNN@ oNNNNNNNNNNNNNNspppppppplNNNNp4iNNN ",
" NNzt4iNNNNNONNNNNNNNNNNNNNNNappppppplNNNNNNNNNNN ",
" NNNNNNNNNNNNNNNNNNNNNNNNNNNNzppppplNNNNNNNNNNNNN ",
" NNNNNNNNNNNNNNNNNNNNNNBNNNNNNNNNNNNNNNNNNNNNNNNN ",
" NNNNNNNNNNNNNNNNNNNNNNNNNNNNNNNNNNNNNNNNNNNNNNNN ",
" NNNNNNNNNNNNNNNNNNNNNNN %NNNNNNNNNNNNNNNNNNNNNNN ",
" NNNNNNNNNNNNNNNNNNNNNNBN *NNNNNkwwgNNNNNNNNNNNNN ",
" NNNNNNNNvhcNNNNNNNNNNNNN  NNNNNw446NNNNNNNNNbNNn ",
" NNNNNNNvapaNNNNNNNNNNmNN +NNNNN9444NNNNNNNN$   X ",
" NNNNNNcapppNNvddxNNNNNNooNNNNNN4444NNNNNNN$oNNN+ ",
" NNNNvdpppppNNspppdcNNNBNNNNNNNN4444NNNNNNN NNNNN ",
" NNvdpppppppNNpppppacNNNNNNNNNNN4444NNNNNNN.NNNNN ",
" NNdppppppplNNppppppaNNNNNNNNNNN644iNNNNNNNNNNNNN ",
" NNzpppppppNNNappzpplNNNNNNNNNNNp4iNNNNNNNNNNNNNN ",
" NNNNNNzpplNNNzplNNNNNNNNNNNNNNNNNNNNNNNNNNNNNNNN ",
" NNNNNNNNNNNNNNNNNNNNNNNNNNNNNNNNNNNNNNNNNNNNNNNN ",
" NNNNNNNNNNNNNNNNNNNNNNNNNNNN=======NNNNNNNNNNNNN ",
" NNNNNNNNNNNNN>->NNNNNNNNNN===========NNNNNNNNNNN ",
" NNNNNNNNNNNN>;--NNNNNNNNN=============NNNNNNNNNN ",
" NNNNN,->NNNN-->;NNNNNNNN======1V2======NNNNNNNNN ",
" NNNNNN-;->N>;--NNNNNNNNN=====1VV3======NNNNNNNNN ",
" NNNNNN---;>----NNNNNNNNN=======1V1=====NNNNNNNNN ",
" NNNNNN;>----->;NNNNNNNNNN=============NNNvhcNNNN ",
" NNNNNNN---;;--NNNNNNNNNNNN===========NNNvapppdcN ",
" NNNNNNN;>--->;NNNNNNNNNNNNNN=======NNNNNspppppaN ",
" NNNNNNNN:<---NNNNNNNNNNNNNNNNNNNNNNNNNNNappppplN ",
" NNNNNNNNN;--;NNNNNNNNNNNNNNNNNNNNNNNNNNNspppppNN ",
" NNNNNNNNNNNNNNNNNNNNNNNNkwwdNNNNNNNNNNNNpppppjNN ",
" NNNNNNNNNNNNNNNNNNNNNNNNw44444wgNNNNNNNNpppppMNN ",
" NvddcNNNNNNNNNNNNNNNNNNNp4444446NNNNNNNNappplNNN ",
" NdppppdcNNNNNNNNNNNNNNNNNp444444NNNNNNNNzpplNNNN ",
" NzpppppacNNNNNNNNNNNNNNNNNNp4444gNNNNNNNNNNNNNNN ",
" NNzpppppaNNNNNNNNNNNfpfNNNNNN6446NNNNNBNNNNNNNNN ",
" NNNppppplNNNNNNNffNfpppNNNNNNp444NNNNN*NNNNNNNNN ",
" NNNapplNNNNNNNNNppfpppaNNNNNNN444NNNNN &NNNNNNNN ",
" NNNzplNNNNNNNNNNappppaNNNNNNNN644NNNNN BNNNNNNNN ",
" NNNNNNNNNNNNNNNNNNNNNNNNNNNNNNp4iNNNN#oNNNNNNNNN ",
" NNNNNNNNNNNNNNNNNNNNNNNNNNNNNNNNNNNNN.NNNNNNNNNN ",
" NNNNNNNNNNNNNNNNNNNNNNNNNNNNNNNNNNNNNNNNNNNNNNNN ",
"                                                  "
};
