/* XPM */
static char *result[] = {
/* columns rows colors chars-per-pixel */
"50 50 61 1 ",
"  c black",
". c #040403",
"X c #080706",
"o c #0F0E0B",
"O c #171611",
"+ c #1E1D16",
"@ c #2A281F",
"# c #2B291F",
"$ c #2D2B21",
"% c #3C392C",
"& c #5A5642",
"* c gray50",
"= c #22B14C",
"- c #24B24D",
"; c #25B24D",
": c #2FB452",
"> c #49BB5F",
", c #56BE65",
"< c #6FC572",
"1 c #B2B2B2",
"2 c #B6B6B6",
"3 c gray75",
"4 c #BFD899",
"5 c #D1C89A",
"6 c #CBDB9E",
"7 c #E7D687",
"8 c #E7D688",
"9 c #E7D689",
"0 c #E7D789",
"q c #E7D78A",
"w c #E7D78B",
"e c #E8D78A",
"r c #E8D78B",
"t c #E8D88C",
"y c #E9D990",
"u c #E9DA91",
"i c #E8D992",
"p c #EADA94",
"a c #EADB96",
"s c #EADC98",
"d c #EBDD9C",
"f c #EBDD9D",
"g c #EBDD9E",
"h c #ECDE9F",
"j c #CDDCA0",
"k c #ECDFA0",
"l c #ECDEA1",
"z c #ECDFA1",
"x c #ECE0A3",
"c c #EDE0A4",
"v c #EDE0A5",
"b c #EDE1A6",
"n c #EDE1A7",
"m c #EDE1A9",
"M c #EEE2AA",
"N c #ECE1AE",
"B c #EDE2AF",
"V c #EFE4AF",
"C c #EFE4B0",
"Z c #EFE5B0",
"A c #C3C3C3",
/* pixels */
"                                                  ",
" CCCCCCCCCCCCCCCCCCCCCCCCCCCCCCCCCCCCCCCCCCCCCCCC ",
" CCCCCCCCCCCCCCCCCCCCMhhmCCCCCCCCCCCCCCCCCCCCCCCC ",
" CCCCCCCCCCCCCCCCCCCMfdddhmCCCCCCCCMhdhmCCCCCCCCC ",
" CCCCCCCCCCCCCCCCCmhddddddfCCCCCCMhddddfmCCCCCcul ",
" CCCCCCCCCCCCCCCMhddddddddvCCCCCMfddddddfCCCCCw79 ",
" MhhmCCCCCCCCCCChddddddvCCCCCCCMfaqqpddddCCCct777 ",
" hddfCCCCCCC&CCCbdddvCCCCCCCCCMfdq778ddddCCce7777 ",
" bddartlCCCC CCCCCCCCCCCCCCCCCgddi77ydddvCCw7777s ",
" Cfd0779CCCCo$CCCCCCCCCCCCCCCMdddddddddvCCC977sCC ",
" Cbd877sCCCC@oCCCCCCCCCCCCCCCgddddddddvCCCCd7sCCC ",
" CCbi7sCCCCC.CCCCCCCCCCCCCCCCfdddddddvCCCCCCCCCCC ",
" CCCCCCCCCCCCCCCCCCCCCCCCCCCCbdddddvCCCCCCCCCCCCC ",
" CCCCCCCCCCCCCCCCCCCCCCCCCCCCCCCCCCCCCCCCCCCCCCCC ",
" CCCCCCCCCCCCCCCCCCCCCCO CCCCCCCCCCCCCCCCCCCCCCCC ",
" CCCCCCCCCCCCCCCCCCCCCC ZCCCCCCCCCCCCCCCCCCCCZCCC ",
" CCCCCCCCCCCCCCCCCCCCCC BZCCCCCCcttlCCCCCCCCZO%CC ",
" CCCCCCCCMzmCCCCCCCCCCCo$CCCCCCCt779CCCCCCCZC CCC ",
" CCCCCCCMfdfCCCCCCCCCCCN CCCCCCCw777CCCCCCCCC CCC ",
" CCCCCCmfdddCCMhhnCCCCCoXCCCCCCC7777CCCCCCC5$oCCC ",
" CCCCMhdddddCCgdddhmCCCCCCCCCCCC7777CCCCCCC oCCCC ",
" CCMhdddddddCCdddddfmCCCCCCCCCCC7777CCCCCCC+CCCCC ",
" CChdddddddvCCddddddfCCCCCCCCCCC977sCCCCCCCCCCCCC ",
" CCbdddddddCCCfddbddvCCCCCCCCCCCd7sCCCCCCCCCCCCCC ",
" CCCCCCbddvCCCbdvCCCCCCCCCCCCCCCCCCCCCCCCCCCCCCCC ",
" CCCCCCCCCCCCCCCCCCCCCCCCCCCCCCCCCCCCCCCCCCCCCCCC ",
" CCCCCCCCCCCCCCCCCCCCCCCCCCCC*******CCCCCCCCCCCCC ",
" CCCCCCCCCCCCC>=>CCCCCCCCCC***********CCCCCCCCCCC ",
" CCCCCCCCCCCC>:==<CCCCCCCC*************CCCCCCCCCC ",
" CCCCC,=>CCCC==>;:CCCCCCC******1A2******CCCCCCCCC ",
" CCCCZC=:=>C>:===CCCCCCCC*****1AA3******CCCCCCCCC ",
" CCCCCC===:>=====CCCCCCCC*******1A1*****CCCCCCCCC ",
" CCCCCC6>=====>;:CCCCCCCCC*************CCCMzmCCCC ",
" CCCCCCC===::===CCCCCCCCCCC***********CCCMfdddhmC ",
" CCCCCCC6>===>;:CCCCCCCCCCCCC*******CCCCCgdddddfC ",
" CCCCCCCCj<===:CCCCCCCCCCCCCCCCCCCCCCCCCCfdddddvC ",
" CCCCCCCCC4==-CCCCCCCCCCCCCCCCCCCCCCCCCCCgdddddCC ",
" CCCCCCCCCCCCCCCCCCCCCCCCctthCCCCCCCCCCCCdddddxCC ",
" CCCCCCCCCCCCCCCCCCCCCCCCt77777tlCCCCCCCCdddddVCC ",
" CMhhmCCCCCCCCCCCCCCCCCCCd7777779CCCCCCCCfdddvCCC ",
" ChddddhmCCCCCCCCCCCCCCCCCd777777CCCCCCCCbddvCCCC ",
" CbdddddfmCCCCCCCCCCCCCCCCCCd7777lCCCCCCCCCCCCCCC ",
" CCbdddddfCCCCCCCCCCCkdkCCCCCC9779C%$CCCZCCCCCCCC ",
" CCCdddddvCCCCCCCkkCkdddCCCCCCd777CC CCCCCCCCCCCC ",
" CCCfddvCCCCCCCCCddkdddfCCCCCCC777CCo$CCCCCCCCCCC ",
" CCCbdvCCCCCCCCCCfddddfCCCCCCCC977CCC CCCCCCCCCCC ",
" CCCCCCCCCCCCCCCCCCCCCCCCCCCCCCd7sCCCo#CCCCCCCCCC ",
" CCCCCCCCCCCCCCCCCCCCCCCCCCCCCCCCCCCCC.CCCCCCCCCC ",
" CCCCCCCCCCCCCCCCCCCCCCCCCCCCCCCCCCCCCCCCCCCCCCCC ",
"                                                  "
};
