/* XPM */
static char *_28c0d53350141bbd89aba78525a9ec1DInc7xO5B0Zp5QYI[] = {
/* columns rows colors chars-per-pixel */
"50 50 58 1 ",
"  c black",
". c #080806",
"X c #0B0B07",
"o c #0F0E0A",
"O c #0F0E0B",
"+ c #1E1D16",
"@ c #2C291B",
"# c #2C2A1D",
"$ c #2C2A1E",
"% c #2D2B21",
"& c #3C392C",
"* c #5A5642",
"= c gray50",
"- c #FF7F27",
"; c #22B14C",
": c #2FB452",
"> c #3CB859",
", c #49BB5F",
"< c #56BE65",
"1 c #6FC572",
"2 c #B2B2B2",
"3 c #B6B6B6",
"4 c gray75",
"5 c #E7D687",
"6 c #E7D688",
"7 c #E7D689",
"8 c #E7D789",
"9 c #E7D78A",
"0 c #E7D78B",
"q c #E8D78A",
"w c #E8D78B",
"e c #E8D88C",
"r c #E9DA91",
"t c #E8D992",
"y c #EADA94",
"u c #EADB96",
"i c #EADC98",
"p c #EBDD9C",
"a c #EBDD9D",
"s c #EBDD9E",
"d c #ECDE9F",
"f c #E1D7A6",
"g c #ECDFA0",
"h c #ECDEA1",
"j c #ECDFA1",
"k c #ECE0A3",
"l c #EDE0A4",
"z c #EDE0A5",
"x c #EDE1A6",
"c c #EDE1A9",
"v c #EEE2AA",
"b c #EEE2AB",
"n c #EEE3AC",
"m c #EFE4AF",
"M c #EFE4B0",
"N c #EFE5B0",
"B c #F1E8BA",
"V c #C3C3C3",
/* pixels */
"                                                  ",
" MMMMMMMMMMMMMMMMMMMMMMMMMMMMMMMMMMMMMMMMMMMMMMMM ",
" MMMMMMMMMMMMMMMMMMMMcddcmmMMMMMMMMmMmMMMMMMMMmmM ",
" MMMMMMMMMMMMMMMMMMMcappddcMMMMMMMMcgpdcMMMMMMMmM ",
" MMMMMMMMMMMMMMMMMxdapapppaMMMMMmcgpppaacMMMMMxyg ",
" MMmMMMMMMMMMMMMcdppdcMmpaxMMMMMnappp$ %MMMmMM85q ",
" cddcMMMMMMMMMMMgppppmMj%     %ca8yp$O- MMMmx8855 ",
" gpaaMMMMMMMMMMMxdppxmM%O-----O$p55@O-- MMMx85555 ",
" xdpu8egMMM*MMMMMMMMMf.O- -----O$5@O--- MMM85558p ",
" Mpp8588MMMO%MMMMMMMMM ---------O.O---- MMM855pMm ",
" Mxp555pMMMM MMMMMMMMM ----------O----- MMMa5uMMM ",
" mmxt5uMMMMM+MMMMMMMMMO%--------$ $---- MMMMmmMMM ",
" MMMMMMMMMMMMMMMMMMMMMMO%------$OxO %-- MMMMMMMMM ",
" MMMMMMMMMMMMMMMMMMMMMMMO%----%OMMmMO % MMMMMMMMM ",
" MMMMMMMMMMMMMMMMMMMMMMMMO    OmMMMMMMOOMBBMMMMMM ",
" MMMMMMMMMMMMMMMMMMMMMMMMMMMMMMmMMMMMMMMMMMMMMMMM ",
" MM% #papdcmMMMMxapcMMM%&MMMMMMMjeegMMMMMMMMM*MMM ",
" MM -o#ay8dc%     %xMM%OMMMMMMMMe588MMMMMMMM%OMMM ",
" MM --o#55p$O-----O%MMO%MMMMMMMM8555MMMMMMM%OMMMM ",
" MM ---o@5$O----- -O.MMO&MMMMMMM5555MMMMMMM MMMMM ",
" MM ----O.o--------- MMMMMMMMMMM5555MMMMMMM MMMMM ",
" MM -----O---------- MMMMMMMMMMM5555MMMMMMM+MMMMM ",
" MM ----# #--------%OMMMMMMMMMMM855pMMMMMMMMMMMMM ",
" MM --% olo#------%OMMMMMMMMMMMMp5uMMMMMMMMMMMMMM ",
" MM % OMMMMO%----%OMMMMMMMMMMMMMMMMMMMMMMMMMMMMMM ",
" MMoOMMMMMMMO    OMMMMMMMMMMMMMMMMMMMMMMMMMMMMMMM ",
" MMMMMMMMMMMMMMMMMMMMMMMMMMMM=======MMMMMMMMMMMMM ",
" MMMMMMMMMMMMM,;,MMMMMMMMMM===========MMMMMMMMMMM ",
" MMMMMMMMMMMM,:;;MMMMMMMMM=============MMMMMMMMMM ",
" MMMMM<;,MMMM;;,:MMMMMMMM======2V3======MMMMMMMMM ",
" MMMMMM;:;,M,:;;MMMMMMMMM=====2VV4======MMMMMMMMM ",
" MMMMMM;;;:,;;;;MMMMMMMMM=======2V2=====MMMMMMMMM ",
" MMMMMM:,;;;;;,:MMMMMMMMMM1============MMMcgcmmmM ",
" MMMMMMM;;;::;;MMMMMMMMMMMf===========MMMcapdpdcM ",
" MMMMMMM:,;;;,:MMMMMMMMMMMMMM=======MMMmMaappaaaM ",
" MMMMMMMM>1;;;MMMMMMMMMMMMMMMjssjMMMMMcpaaa$ %djM ",
" MMMMMMMMM:;;:MMMMMMMMMMMMMMMh%     %Ms8yp$O- amM ",
" MMMMMMMMMMMMMMMMMMMMMMMMcw7M%O-----O%p55@O-- lMM ",
" MMmMMMMMMMMMMMMMMMMMMMMMw77OO- -----O$8@O--- mmM ",
" MnddcMMMMMMMMMMMMMMMMMMMh77.---------OXO---- MMM ",
" MdppppdcMMMMMMMMMMMMMMMMMa5 ----------O----- MMM ",
" mxappppacMMMMMMMMMMMMMmMMmMO%--------$ $---- MMM ",
" MMxppppaamMMMMMMMMMMdagMMMMMO%------@OxO %-- MMM ",
" MmmpppppxmMMMMMMggMgappMMMMMMO%----%OMMmmO % MMM ",
" MMMappxMMMMMMMMMapdppaaMMMMMMMO    OMMMMMMMOOMMM ",
" MMMxaxmMMMMMMMMMappppaMMMMMMMM855MMMMM MMMMMMMMM ",
" MMMMMMMMMMMMMMMMMMMmMMMMMMMMMma5pMMMM%OMMMMMMMMM ",
" MMMMMMMMMMMMMMMMMMMMMMMMMMMMMMMmMMMMM+MMMMMMMMMM ",
" MMMMMMMMMMMMMMMMMMMMMMMMMMMMMMMmmMMMMMMMMMMMMMMM ",
"                                                  "
};
