/* XPM */
static char *_3b6b07382fc4d65f23920f3485af087L45MV73xHDZMJB1N[] = {
/* columns rows colors chars-per-pixel */
"50 50 40 1 ",
"  c black",
". c #0F0404",
"X c #0F0E0B",
"o c #1E1D16",
"O c #3B0709",
"+ c #5A5642",
"@ c gray50",
"# c #FF2B30",
"$ c #22B14C",
"% c #2FB452",
"& c #49BB5F",
"* c #E7D687",
"= c #E7D688",
"- c #E7D689",
"; c #E7D789",
": c #E7D78B",
"> c #E8D78B",
", c #E8D88C",
"< c #E9DA91",
"1 c #EADB96",
"2 c #EADC98",
"3 c #EBDD9C",
"4 c #EBDD9D",
"5 c #EBDD9E",
"6 c #ECDE9F",
"7 c #ECDFA0",
"8 c #ECDEA1",
"9 c #EDE0A4",
"0 c #EDE0A5",
"q c #EDE1A6",
"w c #EDE1A9",
"e c #EEE2AA",
"r c #EFE4B0",
"t c #FF8CD7",
"y c #FBFBFB",
"u c #FEFDFA",
"i c #FFFBFC",
"p c #FDFDFD",
"a c #FEFEFC",
"s c #FEFEFE",
/* pixels */
"                                                  ",
" rrrrrrrrrrrrrrrrrrrrrrrrrrrrrrrrrrrrrrrrrrrrrrrr ",
" rrrrrrrrrrrrrrrrrrrre77wrrrrrrrrrrrrerrrrrrrrrrr ",
" rrrrrrrrrrrrrrrrrrrw33366wrrrrrrrrw667wrrrrrrrrr ",
" rrrrrrrrrrrrrrrrrw73333333rrrrrrw763333wrrrrrq<7 ",
" rrrrrrrrrrrrrrrrrrrrrrrrrrrrrrrrrrrrrrrrrrrrre*> ",
" w66wrrrrrrrrrrrrrrrrrrrrrrrrrrrrrrrrrrrrrrrrrr*= ",
" 7331>rrrrrrrrrrrrrrrrrrrrrrrrrrrrrrrrrrrrrrrrr>* ",
" q63==rrrrrrrrrrrrrrrrrrrrrrrerrrrrrrrrrrrrrrrr*3 ",
" r33=>rrrrrrrrrre73333r3qrrrw636333rrrr:rrrrrrrre ",
" rq3rrrrrrrrrr         rr          rrr,=rrrrrrrrr ",
" reqrrrrr7rr+ tttttttt rr ttttttttt  ===rrrrrrrrr ",
" rrrrrrrr=rr  ttttt    rr    ttttttt  *3rrrrrrrrr ",
" rrrrrrre3rr ttttt  rrrrrr33   tttttt 1rrrrrrrrrr ",
" rrrrrrrrrr  ttttt rrrrrrrq333  ttttt rrrrrrrrrrr ",
" rrrrrrrrrr tttttt  rrrrrr      ttttt rrrrrrrrrrr ",
" rrrrwrrrrr ttttttt   rrr  tttttttttt rrrrrrrrrrr ",
" rrr73rrrr  ttttttttt rrr   ttttttttt +rrrrrrrrrr ",
" rrr63rrrr tttttt     rrrrrr  ttttttt Xrrrrrrrrrr ",
" rrrrerrrr tttt   r    rr      tttttt rrrrrrrrrrr ",
" rrrrrrrr3 tt   r37 py rr up ==*rr tt rrrrrrrrrrr ",
" rrerrrrr3 tt r333  pO rr Oi  **rr ttorrrrrrrrrrr ",
" rr7rrrrr3 tt      .               tt rrrrrrrrrrr ",
" rrqrrrrrq ttttttttttttttttttttttttt  rrrrrrrrrrr ",
" rrrrrrrrr  tttttttttttttttttttttttt rrrrrrrrrrrr ",
" rrrrrrrrrr tttttttttt##t##ttttttt   rrrrrrrrrrrr ",
" rrrrrrrrrrr     tttt#tt#tt#tttt   rrrrrrrrrrrrrr ",
" rrrrrrrr$&r      ttt#ttttt#tttt  @rrrrrrrrrrrrrr ",
" rrrrrrrr$%$ ttttttttt#ttt#tttttt   rrrrrrrrrrrrr ",
" rrrrrrrr$$$ tttttttttt#t#ttttttttt  rrrrrrrrrrrr ",
" rrrrrrrr    t   ttttttt#ttttttttttt 336rrrrrrrrr ",
" rrr7wrr ttttt r tttttttttttttt  ttt    rrrrrrrrr ",
" rrr33rr ttttt r tttttttttttttt  tttttt rrrrrrrrr ",
" rrr33rrr       ttttttttttttttt r  tttt rrrrrrrwr ",
" rrr33rrrrrr   tttttttttttttttt  r      rrrrrrr3r ",
" rrrq6rrrrrr tttt tttttttttttttt  rrrrrrrrrrrrrqr ",
" rrrrrrrr   tttt   ttttttttttttttt rrrrrrrrrrrrrr ",
" rrrrrrrr ttt    rr tttttttt   tttt rrrrrrrrrrrrr ",
" rrrrrrrr ttt rrr99  ttttttt r  ttt   rrrrrrrrrrr ",
" rw7rrrrrr   rrre3333       =*r tttt  rrrrrrrrrrr ",
" r63rrrrrrrrrrrrrrrrrrrrrrrr*3rr     rrrrrrrrrrrr ",
" rq3rrrrrrrrrrrrrrrrrrrrrrrrerrrrrrrrrrrrrrrrrrrr ",
" rrqrrrrrrrrrrrrrrrrrrrrrrrrrrrrrrrrrrrrrrrrrrrrr ",
" rrrrrrrrrrrrrrrrrrrrrrrrrrrrrrrrrrrrrrrrrrrrrrrr ",
" rrrrrrrrrrrrrrrrrrrrrrrrrrrrrrrrrrrrrrrrrrrrrrrr ",
" rrrrrrrrrrrrrrrrrrrrrrrrrrrrrrrrrrrrrrrrrrrrrrrr ",
" rrrrrrrrrrrrrrrrrrrrrrrrrrrrrrrrrrrrrrrrrrrrrrrr ",
" rrrrrrrrrrrrrrrrrrrrrrrrrrrrrrrrrrrrrrrrrrrrrrrr ",
" rrrrrrrrrrrrrrrrrrrrrrrrrrrrrrrrrrrrrrrrrrrrrrrr ",
"                                                  "
};
