/* XPM */
static char *_d2df9b4387241b2c8e81aed8b513ca1FYpRrSYF1mu9zoSs[] = {
/* columns rows colors chars-per-pixel */
"32 32 2 1 ",
"  c None",
". c black",
/* pixels */
"                                ",
"                                ",
"                                ",
"                                ",
"                                ",
"                                ",
"        ......   ......         ",
"        ......   ......         ",
"        ......   ......         ",
"     .....................      ",
"     .....................      ",
"     .....................      ",
"     .....................      ",
"     .....................      ",
"     .....................      ",
"        ...............         ",
"        ...............         ",
"        ...............         ",
"           .........            ",
"           .........            ",
"           .........            ",
"              ...               ",
"              ...               ",
"              ...               ",
"                                ",
"                                ",
"                                ",
"                                ",
"                                ",
"                                ",
"                                ",
"                                "
};
